<svg width="38" height="38" viewBox="0 0 38 38" fill="none" xmlns="http://www.w3.org/2000/svg">
<path d="M38 19C38 29.4934 29.4934 38 19 38C8.50659 38 0 29.4934 0 19C0 8.50659 8.50659 0 19 0C29.4934 0 38 8.50659 38 19Z" fill="white"/>
<path d="M11.6667 15.6667L15.5 16.7733L19.7133 13.7133L13.6667 13.8867C13.6075 13.8899 13.5501 13.9083 13.5 13.94L11.5867 15.04C11.5272 15.073 11.4789 15.1231 11.4481 15.1837C11.4174 15.2444 11.4056 15.313 11.4142 15.3805C11.4228 15.448 11.4515 15.5113 11.4965 15.5623C11.5415 15.6134 11.6008 15.6497 11.6667 15.6667Z" fill="#007AFF"/>
<path d="M30.5133 12.24L26.3133 11.3333C25.9601 11.2567 25.5945 11.2569 25.2414 11.3339C24.8883 11.411 24.5558 11.5631 24.2667 11.78L11.58 21L8.53333 20.8667C8.35882 20.8607 8.18686 20.9098 8.04172 21.0068C7.89658 21.1039 7.7856 21.2441 7.72446 21.4077C7.66331 21.5712 7.65508 21.7499 7.70093 21.9184C7.74678 22.0868 7.8444 22.2367 7.98 22.3467L10.9467 24.7C10.9955 24.7394 11.0536 24.7656 11.1155 24.7761C11.1774 24.7866 11.2409 24.7811 11.3 24.76C12.1467 24.4333 15.3 22.76 19.0267 20.7133L19.7733 28.3867C19.7797 28.4531 19.804 28.5166 19.8438 28.5702C19.8835 28.6239 19.9372 28.6656 19.9989 28.691C20.0607 28.7164 20.1282 28.7244 20.1942 28.7143C20.2601 28.7041 20.3221 28.6761 20.3733 28.6333L22.04 27.2467C22.1312 27.1701 22.1926 27.0639 22.2133 26.9467L23.7933 18.0867C26.46 16.6067 29.0067 15.1733 30.8 14.16C30.9861 14.0587 31.1366 13.9027 31.2311 13.7131C31.3255 13.5234 31.3594 13.3093 31.3281 13.0998C31.2968 12.8902 31.2019 12.6953 31.0561 12.5415C30.9104 12.3878 30.7209 12.2825 30.5133 12.24Z" fill="#007AFF"/>
</svg>
