<svg width="38" height="38" viewBox="0 0 38 38" fill="none" xmlns="http://www.w3.org/2000/svg">
<path d="M38 19C38 29.4934 29.4934 38 19 38C8.50659 38 0 29.4934 0 19C0 8.50659 8.50659 0 19 0C29.4934 0 38 8.50659 38 19Z" fill="white"/>
<path d="M24.5777 11.4315L22.5777 10.382C20.8221 9.46066 19.9443 9 19 9C18.0557 9 17.1779 9.46066 15.4223 10.382L15.1006 10.5508L24.0236 15.6497L28.0403 13.6413C27.3941 12.9095 26.3515 12.3623 24.5777 11.4315Z" fill="#007AFF"/>
<path d="M28.7484 14.9643L24.75 16.9635V20C24.75 20.4142 24.4142 20.75 24 20.75C23.5858 20.75 23.25 20.4142 23.25 20V17.7135L19.75 19.4635V28.904C20.4679 28.7252 21.2848 28.2965 22.5777 27.618L24.5777 26.5685C26.7294 25.4393 27.8052 24.8748 28.4026 23.8603C29 22.8458 29 21.5833 29 19.0585V18.9415C29 17.0489 29 15.8656 28.7484 14.9643Z" fill="#007AFF"/>
<path d="M18.25 28.904V19.4635L9.25164 14.9643C9 15.8656 9 17.0489 9 18.9415V19.0585C9 21.5833 9 22.8458 9.5974 23.8603C10.1948 24.8748 11.2706 25.4393 13.4223 26.5685L15.4223 27.618C16.7152 28.2965 17.5321 28.7252 18.25 28.904Z" fill="#007AFF"/>
<path d="M9.95969 13.6413L19 18.1615L22.4112 16.4559L13.5246 11.3778L13.4223 11.4315C11.6485 12.3623 10.6059 12.9095 9.95969 13.6413Z" fill="#007AFF"/>
</svg>
