<svg width="164" height="164" viewBox="0 0 164 164" fill="none" xmlns="http://www.w3.org/2000/svg">
    <defs>
        <linearGradient id="paint0_linear_648_1033" x1="81.9999" y1="0" x2="81.9999" y2="163.039" gradientUnits="userSpaceOnUse">
            <stop stop-color="#007AFF"/>
            <stop offset="1" stop-color="#007AFF" stop-opacity="0.49"/>
        </linearGradient>
    </defs>
<path d="M0.480469 20C0.480469 8.95429 9.43477 0 20.4805 0H143.519C154.565 0 163.519 8.95431 163.519 20V143.039C163.519 154.085 154.565 163.039 143.519 163.039H20.4805C9.43476 163.039 0.480469 154.085 0.480469 143.039V20Z" fill="url(#paint0_linear_648_1033)"/>
<path fill-rule="evenodd" clip-rule="evenodd" d="M47.1266 81.1462C47.1266 64.647 47.1266 56.3974 52.2523 51.2718C57.3779 46.1462 65.6275 46.1462 82.1266 46.1462C98.6258 46.1462 106.875 46.1462 112.001 51.2718C117.127 56.3974 117.127 64.647 117.127 81.1462C117.127 97.6453 117.127 105.895 112.001 111.021C106.875 116.146 98.6258 116.146 82.1266 116.146C65.6275 116.146 57.3779 116.146 52.2523 111.021C47.1266 105.895 47.1266 97.6453 47.1266 81.1462ZM75.1405 59.2771C76.5903 59.2694 77.7593 58.0879 77.7516 56.6382C77.7439 55.1885 76.5624 54.0195 75.1127 54.0272C71.3266 54.0472 68.182 54.1337 65.6158 54.5826C62.9842 55.043 60.7341 55.9197 58.8917 57.6744C57.2988 59.1914 56.2333 60.7277 55.6535 62.9348C55.128 64.9353 55.0344 67.3966 55.0097 70.6261C54.9986 72.0758 56.1648 73.26 57.6145 73.2711C59.0642 73.2822 60.2484 72.116 60.2595 70.6662C60.285 67.3455 60.3988 65.5345 60.7313 64.2687C61.0095 63.2094 61.4526 62.4854 62.5123 61.4761C63.3592 60.6696 64.5151 60.1049 66.5204 59.7541C68.591 59.3919 71.3141 59.2974 75.1405 59.2771ZM89.1408 54.0272C87.6911 54.0195 86.5097 55.1885 86.502 56.6382C86.4943 58.0879 87.6633 59.2694 89.113 59.2771C92.9393 59.2974 95.6624 59.3919 97.7329 59.7541C99.7382 60.1049 100.894 60.6696 101.741 61.4761C102.801 62.4854 103.244 63.2094 103.522 64.2687C103.854 65.5345 103.968 67.3455 103.994 70.6662C104.005 72.116 105.189 73.2822 106.639 73.2711C108.088 73.26 109.255 72.0758 109.244 70.6261C109.219 67.3966 109.125 64.9353 108.6 62.9348C108.02 60.7277 106.954 59.1914 105.362 57.6744C103.519 55.9197 101.269 55.043 98.6376 54.5826C96.0714 54.1337 92.9269 54.0472 89.1408 54.0272ZM57.6266 78.5213C56.1769 78.5213 55.0016 79.6966 55.0016 81.1463C55.0016 82.5961 56.1769 83.7713 57.6266 83.7713H106.627C108.076 83.7713 109.252 82.5961 109.252 81.1463C109.252 79.6966 108.076 78.5213 106.627 78.5213H57.6266ZM60.2595 91.6264C60.2484 90.1767 59.0642 89.0105 57.6145 89.0216C56.1648 89.0327 54.9986 90.2169 55.0097 91.6666C55.0344 94.8961 55.128 97.3574 55.6535 99.3579C56.2333 101.565 57.2988 103.101 58.8917 104.618C60.7341 106.373 62.9842 107.25 65.6156 107.71C68.1819 108.159 71.3263 108.245 75.1124 108.266C76.5621 108.273 77.7436 107.104 77.7513 105.654C77.759 104.205 76.59 103.023 75.1402 103.016C71.3139 102.995 68.5909 102.901 66.5204 102.539C64.5151 102.188 63.3592 101.623 62.5123 100.817C61.4526 99.8073 61.0095 99.0833 60.7313 98.024C60.3988 96.7582 60.285 94.9471 60.2595 91.6264ZM109.244 91.6666C109.255 90.2169 108.088 89.0327 106.639 89.0216C105.189 89.0105 104.005 90.1767 103.994 91.6264C103.968 94.9471 103.854 96.7582 103.522 98.024C103.244 99.0833 102.801 99.8073 101.741 100.817C100.894 101.623 99.7381 102.188 97.7329 102.539C95.6624 102.901 92.9393 102.995 89.113 103.016C87.6633 103.023 86.4943 104.205 86.502 105.654C86.5097 107.104 87.6911 108.273 89.1408 108.266C92.9269 108.245 96.0714 108.159 98.6376 107.71C101.269 107.25 103.519 106.373 105.362 104.618C106.954 103.101 108.02 101.565 108.6 99.3579C109.125 97.3574 109.219 94.8961 109.244 91.6666Z" fill="white"/>

</svg>
