<svg width="164" height="164" viewBox="0 0 164 164" fill="none" xmlns="http://www.w3.org/2000/svg">
    <defs>
        <linearGradient id="paint0_linear_648_1031" x1="81.9999" y1="0" x2="81.9999" y2="163.039" gradientUnits="userSpaceOnUse">
            <stop stop-color="#007AFF"/>
            <stop offset="1" stop-color="#007AFF" stop-opacity="0.49"/>
        </linearGradient>
    </defs>
<path d="M0.480469 20C0.480469 8.95429 9.43477 0 20.4805 0H143.519C154.565 0 163.519 8.95431 163.519 20V143.039C163.519 154.085 154.565 163.039 143.519 163.039H20.4805C9.43476 163.039 0.480469 154.085 0.480469 143.039V20Z" fill="url(#paint0_linear_648_1031)"/>
<path fill-rule="evenodd" clip-rule="evenodd" d="M75.1266 53.1462H89.1266C102.326 53.1462 108.926 53.1462 113.026 57.2467C117.127 61.3472 117.127 67.9468 117.127 81.1462C117.127 94.3455 117.127 100.945 113.026 105.046C108.926 109.146 102.326 109.146 89.1266 109.146H75.1266C61.9273 109.146 55.3276 109.146 51.2271 105.046C47.1266 100.945 47.1266 94.3455 47.1266 81.1462C47.1266 67.9468 47.1266 61.3472 51.2271 57.2467C55.3276 53.1462 61.9273 53.1462 75.1266 53.1462ZM86.5016 70.6462C86.5016 69.1964 87.6769 68.0212 89.1266 68.0212H106.627C108.076 68.0212 109.252 69.1964 109.252 70.6462C109.252 72.0959 108.076 73.2712 106.627 73.2712H89.1266C87.6769 73.2712 86.5016 72.0959 86.5016 70.6462ZM90.0016 81.1462C90.0016 79.6964 91.1769 78.5212 92.6266 78.5212H106.627C108.076 78.5212 109.252 79.6964 109.252 81.1462C109.252 82.5959 108.076 83.7712 106.627 83.7712H92.6266C91.1769 83.7712 90.0016 82.5959 90.0016 81.1462ZM93.5016 91.6462C93.5016 90.1964 94.6769 89.0212 96.1266 89.0212H106.627C108.076 89.0212 109.252 90.1964 109.252 91.6462C109.252 93.0959 108.076 94.2712 106.627 94.2712H96.1266C94.6769 94.2712 93.5016 93.0959 93.5016 91.6462ZM78.6266 70.6462C78.6266 74.5121 75.4926 77.6462 71.6266 77.6462C67.7606 77.6462 64.6266 74.5121 64.6266 70.6462C64.6266 66.7802 67.7606 63.6462 71.6266 63.6462C75.4926 63.6462 78.6266 66.7802 78.6266 70.6462ZM71.6266 98.6462C85.6266 98.6462 85.6266 95.5121 85.6266 91.6462C85.6266 87.7802 79.3586 84.6462 71.6266 84.6462C63.8946 84.6462 57.6266 87.7802 57.6266 91.6462C57.6266 95.5121 57.6266 98.6462 71.6266 98.6462Z" fill="white"/>

</svg>
