<svg width="164" height="164" viewBox="0 0 164 164" fill="none" xmlns="http://www.w3.org/2000/svg">
    <defs>
        <linearGradient id="paint0_linear_648_1032" x1="81.9999" y1="0" x2="81.9999" y2="163.039" gradientUnits="userSpaceOnUse">
            <stop stop-color="#007AFF"/>
            <stop offset="1" stop-color="#007AFF" stop-opacity="0.49"/>
        </linearGradient>
    </defs>
<path d="M0.480469 20C0.480469 8.95429 9.43477 0 20.4805 0H143.519C154.565 0 163.519 8.95431 163.519 20V143.039C163.519 154.085 154.565 163.039 143.519 163.039H20.4805C9.43476 163.039 0.480469 154.085 0.480469 143.039V20Z" fill="url(#paint0_linear_648_1032)"/>
<path fill-rule="evenodd" clip-rule="evenodd" d="M89.1266 53.1462H75.1266C61.9273 53.1462 55.3276 53.1462 51.2271 57.2467C47.1266 61.3472 47.1266 67.9468 47.1266 81.1462C47.1266 94.3455 47.1266 100.945 51.2271 105.046C55.3276 109.146 61.9273 109.146 75.1266 109.146H89.1266C102.326 109.146 108.926 109.146 113.026 105.046C117.127 100.945 117.127 94.3455 117.127 81.1462C117.127 67.9468 117.127 61.3472 113.026 57.2467C108.926 53.1462 102.326 53.1462 89.1266 53.1462ZM107.752 70.6462C107.752 69.1964 106.576 68.0212 105.127 68.0212H57.6266C56.1769 68.0212 55.0016 69.1964 55.0016 70.6462C55.0016 72.0959 56.1769 73.2712 57.6266 73.2712H105.127C106.576 73.2712 107.752 72.0959 107.752 70.6462ZM104.252 81.1462C104.252 79.6964 103.076 78.5212 101.627 78.5212H57.6266C56.1769 78.5212 55.0016 79.6964 55.0016 81.1462C55.0016 82.5959 56.1769 83.7712 57.6266 83.7712H101.627C103.076 83.7712 104.252 82.5959 104.252 81.1462ZM100.752 91.6462C100.752 90.1964 99.5764 89.0212 98.1266 89.0212H57.6266C56.1769 89.0212 55.0016 90.1964 55.0016 91.6462C55.0016 93.0959 56.1769 94.2712 57.6266 94.2712H98.1266C99.5764 94.2712 100.752 93.0959 100.752 91.6462Z" fill="white"/>


</svg>
