<svg width="20" height="22" viewBox="0 0 20 22" fill="none" xmlns="http://www.w3.org/2000/svg">
<g clip-path="url(#clip0_1_389)">
<path d="M19.7875 11.225C19.7875 10.5667 19.7292 9.94168 19.6292 9.33334H10.2125V13.0917H15.6042C15.3625 14.325 14.6542 15.3667 13.6042 16.075V18.575H16.8209C18.7042 16.8333 19.7875 14.2667 19.7875 11.225Z" fill="#4285F4"/>
<path d="M10.2125 21C12.9125 21 15.1709 20.1 16.8209 18.575L13.6042 16.075C12.7042 16.675 11.5625 17.0417 10.2125 17.0417C7.6042 17.0417 5.39587 15.2833 4.6042 12.9083H1.28754V15.4833C2.9292 18.75 6.3042 21 10.2125 21Z" fill="#34A853"/>
<path d="M4.60419 12.9083C4.39586 12.3083 4.28752 11.6667 4.28752 11C4.28752 10.3333 4.40419 9.69166 4.60419 9.09166V6.51666H1.28752C0.60419 7.86666 0.212524 9.38333 0.212524 11C0.212524 12.6167 0.60419 14.1333 1.28752 15.4833L4.60419 12.9083Z" fill="#FBBC05"/>
<path d="M10.2125 4.95833C11.6875 4.95833 13.0042 5.46667 14.0459 6.45834L16.8959 3.60833C15.1709 1.99167 12.9125 1 10.2125 1C6.3042 1 2.9292 3.25 1.28754 6.51667L4.6042 9.09167C5.39587 6.71667 7.6042 4.95833 10.2125 4.95833Z" fill="#EA4335"/>
</g>
<defs>
<clipPath id="clip0_1_389">
<rect width="20" height="20" fill="white" transform="translate(0 1)"/>
</clipPath>
</defs>
</svg>
