<svg width="21" height="21" viewBox="0 0 21 21" fill="none" xmlns="http://www.w3.org/2000/svg">
<path d="M19.8919 0.0398764L0.565257 6.48209C0.41377 6.53257 0.280104 6.62576 0.180354 6.75045C0.080605 6.87514 0.0190245 7.026 0.00302766 7.18487C-0.010491 7.33836 0.0190705 7.49257 0.0883889 7.63017C0.157707 7.76777 0.264034 7.88331 0.395417 7.9638L7.66926 12.1337L14.293 5.5099L15.4643 6.68121L8.84057 13.305L12.9694 20.5847C13.034 20.697 13.1241 20.7926 13.2323 20.8639C13.3406 20.9351 13.4641 20.9799 13.5928 20.9947C13.7216 21.0095 13.852 20.9939 13.9736 20.9491C14.0952 20.9044 14.2046 20.8317 14.293 20.7369C14.3842 20.6447 14.4524 20.5324 14.4921 20.409L20.9344 1.08234C20.9811 0.937265 20.987 0.782091 20.9512 0.633906C20.9155 0.485723 20.8395 0.350279 20.7317 0.242491C20.624 0.134703 20.4885 0.0587529 20.3403 0.0230029C20.1921 -0.0127456 20.037 -0.0069079 19.8919 0.0398764Z" fill="#007AFF"/>
</svg>
