<svg width="32" height="32" viewBox="0 0 32 32" fill="none" xmlns="http://www.w3.org/2000/svg">
<path fill-rule="evenodd" clip-rule="evenodd" d="M29.3333 16.0001C29.3333 23.3639 23.3638 29.3334 16 29.3334C8.63621 29.3334 2.66667 23.3639 2.66667 16.0001C2.66667 8.63628 8.63621 2.66675 16 2.66675C23.3638 2.66675 29.3333 8.63628 29.3333 16.0001ZM20 12.0001C20 14.2092 18.2091 16.0001 16 16.0001C13.7909 16.0001 12 14.2092 12 12.0001C12 9.79094 13.7909 8.00008 16 8.00008C18.2091 8.00008 20 9.79094 20 12.0001ZM16 27.3334C18.3787 27.3334 20.5863 26.6006 22.4092 25.3483C23.2144 24.7953 23.5585 23.7417 23.0904 22.8844C22.1199 21.1071 20.1203 20.0001 15.9999 20.0001C11.8796 20.0001 9.87996 21.107 8.90953 22.8843C8.4414 23.7416 8.78547 24.7952 9.59061 25.3483C11.4136 26.6005 13.6212 27.3334 16 27.3334Z" fill="#007AFF"/>
</svg>
