<svg width="20" height="20" viewBox="0 0 20 20" fill="none" xmlns="http://www.w3.org/2000/svg">
<g clip-path="url(#clip0_22_3593)">
<path d="M16.628 19.5146C16.7271 19.6202 16.8607 19.6794 17 19.6794C17.1393 19.6794 17.2729 19.6202 17.372 19.5146L17.3741 19.5116L17.3812 19.5055L17.4024 19.4811C17.5284 19.345 17.6519 19.2063 17.7729 19.0651C18.0108 18.7901 18.3285 18.4076 18.6482 17.9787C18.9659 17.552 19.2934 17.069 19.5447 16.592C19.7854 16.1357 20 15.6054 20 15.1079C20 14.266 19.664 13.4203 19.1431 12.7872C18.6193 12.151 17.8668 11.6794 17 11.6794C16.1332 11.6794 15.3807 12.1518 14.8569 12.7872C14.336 13.4203 14 14.266 14 15.1079C14 15.6054 14.2146 16.1364 14.4553 16.5928C14.7066 17.069 15.0341 17.5528 15.3518 17.9794C15.7432 18.5022 16.1588 19.0034 16.5969 19.4811L16.6195 19.5055L16.6259 19.5116L16.628 19.5146Z" fill="#007AFF"/>
<path fill-rule="evenodd" clip-rule="evenodd" d="M17 13.5841C16.6724 13.5841 16.3582 13.7246 16.1265 13.9747C15.8949 14.2247 15.7647 14.5638 15.7647 14.9174C15.7647 15.271 15.8949 15.6102 16.1265 15.8602C16.3582 16.1102 16.6724 16.2507 17 16.2507C17.3276 16.2507 17.6418 16.1102 17.8735 15.8602C18.1051 15.6102 18.2353 15.271 18.2353 14.9174C18.2353 14.5638 18.1051 14.2247 17.8735 13.9747C17.6418 13.7246 17.3276 13.5841 17 13.5841Z" fill="#FAFAFA"/>
<g clip-path="url(#clip1_22_3593)">
<path d="M3.47221 6.38901L6.66665 7.31123L10.1778 4.76123L5.13888 4.90568C5.08954 4.90837 5.04172 4.92367 4.99999 4.95012L3.40554 5.86679C3.35595 5.89427 3.31573 5.93599 3.29011 5.98657C3.26448 6.03715 3.25462 6.09426 3.2618 6.1505C3.26898 6.20675 3.29287 6.25954 3.33038 6.30206C3.36789 6.34458 3.4173 6.37487 3.47221 6.38901Z" fill="#007AFF"/>
<path d="M19.1778 3.53334L15.6778 2.77778C15.3834 2.71388 15.0788 2.71405 14.7845 2.77827C14.4902 2.8425 14.2132 2.96928 13.9722 3.15001L3.4 10.8333L0.861107 10.7222C0.715682 10.7173 0.572378 10.7581 0.451429 10.839C0.330481 10.9199 0.237999 11.0368 0.187042 11.1731C0.136085 11.3094 0.129228 11.4582 0.167438 11.5986C0.205649 11.739 0.286997 11.8639 0.399996 11.9556L2.87222 13.9167C2.91292 13.9495 2.96136 13.9713 3.01292 13.9801C3.06447 13.9889 3.11741 13.9842 3.16666 13.9667C3.87222 13.6944 6.5 12.3 9.60555 10.5944L10.2278 16.9889C10.2331 17.0443 10.2534 17.0972 10.2865 17.1419C10.3196 17.1865 10.3643 17.2213 10.4158 17.2425C10.4672 17.2636 10.5235 17.2704 10.5785 17.2619C10.6334 17.2534 10.6851 17.2301 10.7278 17.1945L12.1167 16.0389C12.1927 15.9751 12.2438 15.8866 12.2611 15.7889L13.5778 8.40556C15.8 7.17223 17.9222 5.97778 19.4167 5.13334C19.5718 5.04895 19.6972 4.91893 19.7759 4.76088C19.8546 4.60284 19.8828 4.42442 19.8568 4.2498C19.8307 4.07517 19.7516 3.91278 19.6301 3.78463C19.5087 3.65647 19.3507 3.56875 19.1778 3.53334Z" fill="#007AFF"/>
</g>
</g>
<defs>
<clipPath id="clip0_22_3593">
<rect width="20" height="20" fill="white"/>
</clipPath>
<clipPath id="clip1_22_3593">
<rect width="20" height="20" fill="white"/>
</clipPath>
</defs>
</svg>
