<svg width="24" height="24" viewBox="0 0 24 24" fill="none" xmlns="http://www.w3.org/2000/svg">
<path d="M11.9999 16.192C12.2452 16.1847 12.4554 16.0897 12.6447 15.8925L17.9783 10.208C18.1324 10.0399 18.2166 9.84264 18.2166 9.60152C18.2166 9.11198 17.8521 8.73204 17.3825 8.73204C17.1582 8.73204 16.948 8.82703 16.7868 8.99508L11.9999 14.1097L7.21298 8.99508C7.05178 8.82702 6.84853 8.73204 6.61725 8.73204C6.14767 8.73204 5.78322 9.11198 5.78322 9.60152C5.78322 9.83533 5.86732 10.0399 6.02151 10.208L11.3621 15.8925C11.5443 16.0971 11.7546 16.192 11.9999 16.192Z" fill="#007AFF"/>
</svg>
