<svg width="13" height="8" viewBox="0 0 13 8" fill="none" xmlns="http://www.w3.org/2000/svg">
<path d="M6.5 -5.08241e-05C6.24352 0.00758874 6.02368 0.106903 5.82582 0.313172L0.249154 6.25676C0.0879369 6.43247 0 6.63873 0 6.89084C0 7.40269 0.38106 7.79995 0.872041 7.79995C1.10654 7.79995 1.32638 7.70063 1.49493 7.52492L6.5 2.17723L11.5051 7.52492C11.6736 7.70063 11.8861 7.79995 12.128 7.79995C12.6189 7.79995 13 7.40269 13 6.89084C13 6.64637 12.9121 6.43247 12.7508 6.25676L7.16685 0.313172C6.97632 0.0992635 6.75648 -5.08241e-05 6.5 -5.08241e-05Z" fill="#007AFF"/>
</svg>
