<svg width="18" height="22" viewBox="0 0 18 22" fill="none" xmlns="http://www.w3.org/2000/svg">
<path d="M17.3328 7.50588C15.8669 8.41176 14.9614 9.96471 14.9614 11.6902C14.9614 13.6314 16.1256 15.4 17.8933 16.1333C17.5484 17.2549 17.031 18.2902 16.3843 19.2392C15.4357 20.5765 14.444 21.9569 12.9781 21.9569C11.5121 21.9569 11.0809 21.0941 9.35627 21.0941C7.67473 21.0941 7.0711 22 5.69137 22C4.31165 22 3.36308 20.749 2.28517 19.1961C0.86233 17.0392 0.0431165 14.5373 0 11.9059C0 7.63529 2.75945 5.34902 5.51891 5.34902C6.98487 5.34902 8.19213 6.29804 9.09758 6.29804C9.9599 6.29804 11.3396 5.30588 12.9781 5.30588C14.7027 5.26275 16.3411 6.08235 17.3328 7.50588ZM12.202 3.49412C12.9349 2.63137 13.323 1.55294 13.3661 0.431373C13.3661 0.301961 13.3661 0.129412 13.323 0C12.0726 0.129412 10.9085 0.733333 10.0893 1.68235C9.35627 2.50196 8.92511 3.53726 8.88199 4.65882C8.88199 4.78824 8.88199 4.91765 8.92511 5.04706C9.01134 5.04706 9.14069 5.0902 9.22692 5.0902C10.3911 5.00392 11.469 4.4 12.202 3.49412Z" fill="white"/>
</svg>
