<svg width="20" height="20" viewBox="0 0 20 20" fill="none" xmlns="http://www.w3.org/2000/svg">
<path d="M6.75 1C6.55109 1 6.36032 1.07507 6.21967 1.20869C6.07902 1.34231 6 1.52353 6 1.7125C6 1.90147 6.07902 2.08269 6.21967 2.21631C6.36032 2.34993 6.55109 2.425 6.75 2.425H7V3.85H6.25C5.38805 3.85 4.5614 4.17529 3.9519 4.75431C3.34241 5.33333 3 6.11864 3 6.9375V15.4875C3 16.097 3.18992 16.693 3.54584 17.2001C3.90175 17.7073 4.40773 18.1031 5 18.3375V19.2875C5 19.4765 5.07902 19.6577 5.21967 19.7913C5.36032 19.9249 5.55109 20 5.75 20C5.94891 20 6.13968 19.9249 6.28033 19.7913C6.42098 19.6577 6.5 19.4765 6.5 19.2875V18.575H13.5V19.2875C13.5 19.4765 13.579 19.6577 13.7197 19.7913C13.8603 19.9249 14.0511 20 14.25 20C14.4489 20 14.6397 19.9249 14.7803 19.7913C14.921 19.6577 15 19.4765 15 19.2875V18.3375C15.5923 18.1031 16.0982 17.7073 16.4542 17.2001C16.8101 16.693 17 16.097 17 15.4875V6.9375C17 6.11864 16.6576 5.33333 16.0481 4.75431C15.4386 4.17529 14.612 3.85 13.75 3.85H13V2.425H13.25C13.4489 2.425 13.6397 2.34993 13.7803 2.21631C13.921 2.08269 14 1.90147 14 1.7125C14 1.52353 13.921 1.34231 13.7803 1.20869C13.6397 1.07507 13.4489 1 13.25 1H6.75ZM11.5 2.425V3.85H8.5V2.425H11.5ZM6.25 5.275H13.75C14.716 5.275 15.5 6.0198 15.5 6.9375V15.4875C15.5 15.9284 15.3156 16.3513 14.9874 16.6631C14.6592 16.9748 14.2141 17.15 13.75 17.15H6.25C5.78587 17.15 5.34075 16.9748 5.01256 16.6631C4.68437 16.3513 4.5 15.9284 4.5 15.4875V6.9375C4.5 6.0198 5.284 5.275 6.25 5.275ZM6 8.3625C6 8.17353 6.07902 7.99231 6.21967 7.85869C6.36032 7.72507 6.55109 7.65 6.75 7.65H13.25C13.4489 7.65 13.6397 7.72507 13.7803 7.85869C13.921 7.99231 14 8.17353 14 8.3625C14 8.55147 13.921 8.73269 13.7803 8.86631C13.6397 8.99993 13.4489 9.075 13.25 9.075H6.75C6.55109 9.075 6.36032 8.99993 6.21967 8.86631C6.07902 8.73269 6 8.55147 6 8.3625Z" fill="#6C6C70"/>
</svg>
