<svg width="256" height="110" viewBox="0 0 256 110" fill="none" xmlns="http://www.w3.org/2000/svg">
<path d="M8.52565 7.00347C8.5032 3.11992 11.6451 0 15.5287 0H249C252.866 0 256 3.13401 256 7V102.358C256 106.224 252.866 109.358 249 109.358H12.9747C12.9747 109.358 11.7778 108.828 10.9786 108.723C10.397 108.646 10.0655 108.689 9.48148 108.723C7.49606 108.836 6.58867 110.095 4.49123 109.994C2.57323 109.902 0 107.451 0 107.451C2.38563 106.06 5.48928 102.365 5.48928 102.365C5.48928 102.365 7.87965 98.2809 8.48343 96.0065C8.98619 94.1127 8.65166 28.8032 8.52565 7.00347Z" fill="#F2F2F3"/>
<path d="M5.48928 102.365L5.70508 102.491L5.70518 102.491L5.70554 102.49L5.7069 102.488L5.71218 102.479L5.73257 102.444C5.75042 102.413 5.77659 102.367 5.81007 102.309C5.87703 102.192 5.97323 102.023 6.0905 101.813C6.325 101.393 6.64403 100.809 6.98213 100.153C7.65481 98.8486 8.41539 97.2372 8.72506 96.0707C8.74758 95.9859 8.76358 95.8418 8.77738 95.666C8.79182 95.482 8.80529 95.2402 8.81791 94.9451C8.84317 94.3545 8.86534 93.5429 8.88472 92.5374C8.92347 90.526 8.95116 87.733 8.96985 84.3678C9.00722 77.6372 9.0086 68.6139 8.99033 58.9692C8.95379 39.6797 8.83865 17.902 8.77564 7.00202C8.75401 3.25897 11.7818 0.25 15.5287 0.25H249C252.728 0.25 255.75 3.27208 255.75 7V102.358C255.75 106.086 252.728 109.108 249 109.108H13.0266L13.0202 109.106C12.985 109.091 12.934 109.069 12.8704 109.043C12.7434 108.99 12.5656 108.92 12.3621 108.845C11.9604 108.698 11.4397 108.531 11.0112 108.475C10.498 108.407 10.1616 108.429 9.72733 108.457C9.6448 108.462 9.55873 108.468 9.46724 108.473C8.50336 108.528 7.77793 108.842 7.09917 109.136C7.04242 109.16 6.98599 109.185 6.92978 109.209C6.20093 109.522 5.4931 109.792 4.50323 109.745C4.07018 109.724 3.58386 109.568 3.0876 109.332C2.59381 109.098 2.10508 108.791 1.67068 108.484C1.2369 108.177 0.861382 107.873 0.594231 107.645C0.527342 107.588 0.467326 107.536 0.414975 107.49C1.56523 106.753 2.82629 105.574 3.81794 104.561C4.35833 104.009 4.82353 103.5 5.15366 103.13C5.31878 102.945 5.45023 102.794 5.54054 102.689C5.55494 102.673 5.5683 102.657 5.58059 102.643C5.60681 102.612 5.62813 102.587 5.64425 102.568L5.67124 102.537L5.67821 102.528L5.68002 102.526L5.68051 102.526L5.68064 102.525C5.68068 102.525 5.68071 102.525 5.48928 102.365ZM5.48928 102.365L5.70503 102.491L5.69433 102.509L5.68071 102.525L5.48928 102.365Z" stroke="black" stroke-opacity="0.5" stroke-width="0.5"/>
</svg>
