<svg width="19" height="8" viewBox="0 0 19 8" fill="none" xmlns="http://www.w3.org/2000/svg">
<path d="M9.5 -5.01126e-05C9.24711 0.0074825 9.03034 0.105406 8.83526 0.308788L3.33666 6.16917C3.1777 6.34242 3.09099 6.5458 3.09099 6.79438C3.09099 7.29906 3.46672 7.69076 3.95083 7.69076C4.18204 7.69076 4.39881 7.59283 4.56499 7.41958L9.5 2.14675L14.435 7.41958C14.6012 7.59283 14.8107 7.69076 15.0492 7.69076C15.5333 7.69076 15.909 7.29906 15.909 6.79438C15.909 6.55333 15.8223 6.34242 15.6633 6.16917L10.1575 0.308788C9.96966 0.0978739 9.75289 -5.01126e-05 9.5 -5.01126e-05Z" fill="#007AFF"/>
</svg>
