<svg width="38" height="38" viewBox="0 0 38 38" fill="none" xmlns="http://www.w3.org/2000/svg">
<rect width="38" height="38" rx="19" fill="white"/>
<path d="M25.4773 11.6591L24.1818 10.3636L22.8864 11.6591L21.5909 10.3636L20.2955 11.6591L19 10.3636L17.7045 11.6591L16.4091 10.3636L15.1136 11.6591L13.8182 10.3636V22.4546H11.2273V25.0455C11.2273 26.4791 12.3845 27.6364 13.8182 27.6364H24.1818C25.6155 27.6364 26.7727 26.4791 26.7727 25.0455V10.3636L25.4773 11.6591ZM21.5909 25.9091H13.8182C13.3432 25.9091 12.9545 25.5205 12.9545 25.0455V24.1818H21.5909V25.9091ZM25.0455 25.0455C25.0455 25.5205 24.6568 25.9091 24.1818 25.9091C23.7068 25.9091 23.3182 25.5205 23.3182 25.0455V22.4546H15.5455V12.9546H25.0455V25.0455Z" fill="#007AFF"/>
<path d="M16.4091 14.6818H21.5909V16.409H16.4091V14.6818ZM22.4545 14.6818H24.1818V16.409H22.4545V14.6818ZM16.4091 17.2727H21.5909V18.9999H16.4091V17.2727ZM22.4545 17.2727H24.1818V18.9999H22.4545V17.2727Z" fill="#007AFF"/>
</svg>
