<svg width="32" height="32" viewBox="0 0 32 32" fill="none" xmlns="http://www.w3.org/2000/svg">
<path fill-rule="evenodd" clip-rule="evenodd" d="M3.35894 10.4303C2.66667 11.695 2.66667 13.2206 2.66667 16.2719V18.2999C2.66667 23.5011 2.66667 26.1017 4.22877 27.7175C5.79087 29.3333 8.30502 29.3333 13.3333 29.3333H18.6667C23.695 29.3333 26.2091 29.3333 27.7712 27.7175C29.3333 26.1017 29.3333 23.5011 29.3333 18.2999V16.2719C29.3333 13.2206 29.3333 11.695 28.6411 10.4303C27.9488 9.16557 26.6841 8.38064 24.1546 6.81079L21.488 5.15579C18.8142 3.49635 17.4773 2.66663 16 2.66663C14.5228 2.66663 13.1859 3.49635 10.512 5.15579L7.84538 6.8108C5.31593 8.38064 4.05121 9.16557 3.35894 10.4303ZM15 24C15 24.5522 15.4477 25 16 25C16.5523 25 17 24.5522 17 24V20C17 19.4477 16.5523 19 16 19C15.4477 19 15 19.4477 15 20V24Z" fill="#007AFF"/>
</svg>
