<svg width="14" height="14" viewBox="0 0 14 14" fill="none" xmlns="http://www.w3.org/2000/svg">
<g clip-path="url(#clip0_76_787)">
<g clip-path="url(#clip1_76_787)">
<path d="M2.43056 4.47221L4.66667 5.11776L7.12445 3.33276L3.59723 3.43387C3.56269 3.43576 3.52922 3.44647 3.5 3.46499L2.38389 4.10665C2.34917 4.12589 2.32103 4.1551 2.30309 4.1905C2.28515 4.22591 2.27825 4.26588 2.28327 4.30525C2.2883 4.34463 2.30502 4.38158 2.33128 4.41135C2.35754 4.44111 2.39212 4.46231 2.43056 4.47221Z" fill="#007AFF"/>
<path d="M13.4244 2.47336L10.9744 1.94447C10.7684 1.89974 10.5551 1.89986 10.3491 1.94482C10.1431 1.98977 9.94922 2.07852 9.78055 2.20503L2.37999 7.58336L0.602772 7.50559C0.500974 7.50212 0.400662 7.53073 0.315998 7.58736C0.231334 7.64398 0.166596 7.72577 0.130926 7.82118C0.0952564 7.91659 0.0904562 8.02079 0.117204 8.11907C0.143951 8.21735 0.200895 8.30475 0.279994 8.36892L2.01055 9.7417C2.03904 9.76468 2.07295 9.77997 2.10904 9.7861C2.14513 9.79222 2.18218 9.78899 2.21666 9.7767C2.71055 9.58614 4.54999 8.61003 6.72388 7.41614L7.15944 11.8923C7.16314 11.931 7.17734 11.968 7.20054 11.9993C7.22373 12.0306 7.25502 12.055 7.29103 12.0698C7.32705 12.0846 7.36643 12.0893 7.40492 12.0833C7.44341 12.0774 7.47955 12.0611 7.50944 12.0361L8.48166 11.2273C8.53488 11.1826 8.57068 11.1207 8.58277 11.0523L9.50444 5.88392C11.06 5.02059 12.5456 4.18447 13.5917 3.59336C13.7002 3.53429 13.788 3.44327 13.8431 3.33264C13.8982 3.22201 13.918 3.09712 13.8997 2.97488C13.8815 2.85264 13.8261 2.73897 13.7411 2.64926C13.6561 2.55955 13.5455 2.49815 13.4244 2.47336Z" fill="#007AFF"/>
</g>
</g>
<defs>
<clipPath id="clip0_76_787">
<rect width="14" height="14" fill="white"/>
</clipPath>
<clipPath id="clip1_76_787">
<rect width="14" height="14" fill="white"/>
</clipPath>
</defs>
</svg>
