<svg width="6" height="10" viewBox="0 0 6 10" fill="none" xmlns="http://www.w3.org/2000/svg">
<path d="M6 5C5.99412 4.80271 5.91773 4.6336 5.75906 4.4814L1.18707 0.191657C1.05191 0.0676437 0.893242 0 0.699314 0C0.305583 0 0 0.293123 0 0.6708C0 0.851184 0.0763957 1.02029 0.211557 1.14994L4.32517 5L0.211557 8.85006C0.0763957 8.97971 0 9.14318 0 9.3292C0 9.70688 0.305583 10 0.699314 10C0.887365 10 1.05191 9.93236 1.18707 9.80834L5.75906 5.51296C5.9236 5.3664 6 5.19729 6 5Z" fill="#007AFF"/>
</svg>
