<svg width="24" height="24" viewBox="0 0 24 24" fill="none" xmlns="http://www.w3.org/2000/svg">
<path d="M20.475 23.3L17.975 20.8C17.9084 21.1333 17.7374 21.4167 17.462 21.65C17.1874 21.8833 16.8667 22 16.5 22H3.50005C3.08338 22 2.72938 21.854 2.43805 21.562C2.14605 21.2707 2.00005 20.9167 2.00005 20.5V10.9C2.00005 10.4833 2.14605 10.129 2.43805 9.837C2.72938 9.54567 3.08338 9.4 3.50005 9.4H6.15005L6.35005 9.175L0.675049 3.5L2.10005 2.075L21.9 21.875L20.475 23.3ZM9.25005 12.075C8.30005 12.275 7.52072 12.7333 6.91205 13.45C6.30405 14.1667 6.00005 15.0167 6.00005 16C6.00005 17.1 6.39172 18.0417 7.17505 18.825C7.95838 19.6083 8.90005 20 10 20C10.9834 20 11.8417 19.6917 12.575 19.075C13.3084 18.4583 13.7667 17.6833 13.95 16.75L9.25005 12.075ZM10 18C9.45005 18 8.97938 17.8043 8.58805 17.413C8.19605 17.021 8.00005 16.55 8.00005 16C8.00005 15.45 8.19605 14.979 8.58805 14.587C8.97938 14.1957 9.45005 14 10 14C10.55 14 11.021 14.1957 11.413 14.587C11.8044 14.979 12 15.45 12 16C12 16.55 11.8044 17.021 11.413 17.413C11.021 17.8043 10.55 18 10 18ZM18 15.125L10.875 8H12.575L13.85 9.4H16.5C16.9167 9.4 17.2707 9.54567 17.562 9.837C17.854 10.129 18 10.4833 18 10.9V15.125ZM19 11V7H18V2H22L20.4 5.6H22L19 11Z" fill="#141414"/>
</svg>
