<svg width="20" height="20" viewBox="0 0 20 20" fill="none" xmlns="http://www.w3.org/2000/svg">
<path d="M18.2225 4.68481L10.66 0.546921C10.4579 0.435273 10.2309 0.376709 10 0.376709C9.76914 0.376709 9.54206 0.435273 9.34 0.546921L1.7775 4.68653C1.56153 4.8047 1.38125 4.97868 1.25547 5.19032C1.1297 5.40195 1.06306 5.64347 1.0625 5.88966V14.1087C1.06306 14.3549 1.1297 14.5964 1.25547 14.8081C1.38125 15.0197 1.56153 15.1937 1.7775 15.3118L9.34 19.4515C9.54206 19.5631 9.76914 19.6217 10 19.6217C10.2309 19.6217 10.4579 19.5631 10.66 19.4515L18.2225 15.3118C18.4385 15.1937 18.6188 15.0197 18.7445 14.8081C18.8703 14.5964 18.9369 14.3549 18.9375 14.1087V5.89051C18.9374 5.64389 18.871 5.40184 18.7452 5.18971C18.6194 4.97758 18.4389 4.80319 18.2225 4.68481ZM10 1.75005L16.9051 5.5313L14.3459 6.93122L7.44078 3.14997L10 1.75005ZM10 9.31255L3.09492 5.5313L6.00906 3.93544L12.9141 7.71669L10 9.31255ZM17.5625 14.1122L10.6875 17.8754V10.5011L13.4375 8.9963V12.0625C13.4375 12.2449 13.5099 12.4198 13.6389 12.5487C13.7678 12.6776 13.9427 12.75 14.125 12.75C14.3073 12.75 14.4822 12.6776 14.6111 12.5487C14.7401 12.4198 14.8125 12.2449 14.8125 12.0625V8.24348L17.5625 6.73872V14.1087V14.1122Z" fill="#007AFF"/>
</svg>
