<svg width="24" height="9" viewBox="0 0 24 9" fill="none" xmlns="http://www.w3.org/2000/svg">
<path d="M5.61755 0.119432H6.93983V5.86494C6.93983 6.47632 6.79623 7.01803 6.50902 7.49007C6.22182 7.95926 5.81802 8.32893 5.29764 8.59907C4.77726 8.86637 4.16731 9.00002 3.46778 9.00002C2.7711 9.00002 2.16256 8.86637 1.64218 8.59907C1.1218 8.32893 0.718011 7.95926 0.430807 7.49007C0.143602 7.01803 0 6.47632 0 5.86494V0.119432H1.31801V5.75831C1.31801 6.15357 1.40474 6.50476 1.5782 6.81187C1.75451 7.11898 2.00332 7.36068 2.32465 7.53699C2.64598 7.71045 3.02702 7.79718 3.46778 7.79718C3.91138 7.79718 4.29385 7.71045 4.61518 7.53699C4.93935 7.36068 5.18674 7.11898 5.35736 6.81187C5.53082 6.50476 5.61755 6.15357 5.61755 5.75831V0.119432Z" fill="black"/>
<path d="M13.6205 2.41422C13.575 2.01043 13.3874 1.69763 13.0575 1.47583C12.7276 1.25119 12.3125 1.13887 11.812 1.13887C11.4537 1.13887 11.1437 1.19574 10.8821 1.30948C10.6205 1.42038 10.4172 1.57394 10.2722 1.77015C10.13 1.96351 10.0589 2.18389 10.0589 2.43129C10.0589 2.63887 10.1073 2.81802 10.2039 2.96873C10.3035 3.11944 10.4328 3.24598 10.5921 3.34835C10.7542 3.44788 10.9276 3.53176 11.1125 3.60001C11.2973 3.66541 11.475 3.71944 11.6456 3.76209L12.4987 3.9839C12.7774 4.05214 13.0632 4.14456 13.3561 4.26115C13.649 4.37774 13.9205 4.53129 14.1708 4.72181C14.421 4.91233 14.6229 5.14835 14.7765 5.42987C14.9329 5.71139 15.0111 6.04836 15.0111 6.44077C15.0111 6.93556 14.8831 7.3749 14.6272 7.75879C14.3741 8.14267 14.0058 8.44552 13.5224 8.66732C13.0419 8.88912 12.4603 9.00002 11.7779 9.00002C11.1238 9.00002 10.558 8.89623 10.0802 8.68865C9.60251 8.48106 9.22858 8.18675 8.95843 7.80571C8.68829 7.42182 8.539 6.96684 8.51057 6.44077H9.83284C9.85844 6.75642 9.96081 7.01945 10.14 7.22988C10.3219 7.43746 10.5537 7.59244 10.8352 7.69481C11.1196 7.79433 11.431 7.8441 11.7693 7.8441C12.1419 7.8441 12.4731 7.7858 12.7632 7.66921C13.0561 7.54978 13.2864 7.38485 13.4542 7.17443C13.622 6.96116 13.7058 6.71234 13.7058 6.42798C13.7058 6.16921 13.6319 5.95736 13.484 5.79243C13.339 5.6275 13.1414 5.49101 12.8911 5.38295C12.6438 5.27489 12.3637 5.17963 12.0509 5.09717L11.0186 4.81565C10.3191 4.62513 9.7646 4.34503 9.35512 3.97537C8.94848 3.6057 8.74516 3.1166 8.74516 2.50806C8.74516 2.00474 8.88166 1.56541 9.15464 1.19005C9.42763 0.814694 9.7973 0.523224 10.2637 0.315641C10.73 0.105214 11.2561 0 11.8419 0C12.4333 0 12.9551 0.103792 13.4073 0.311375C13.8622 0.518959 14.2205 0.804742 14.4821 1.16872C14.7438 1.52986 14.8803 1.94503 14.8916 2.41422H13.6205Z" fill="black"/>
<path d="M19.414 8.855H16.5861V0.119432H19.5036C20.3595 0.119432 21.0946 0.294314 21.7088 0.644078C22.323 0.990998 22.7937 1.49005 23.1207 2.14124C23.4505 2.78958 23.6155 3.56731 23.6155 4.47442C23.6155 5.38437 23.4491 6.16637 23.1164 6.8204C22.7865 7.47443 22.3088 7.97774 21.6832 8.33035C21.0576 8.68012 20.3012 8.855 19.414 8.855ZM17.9041 7.70334H19.3415C20.0069 7.70334 20.56 7.57822 21.0008 7.32798C21.4415 7.0749 21.7714 6.7095 21.9903 6.23177C22.2093 5.7512 22.3188 5.16542 22.3188 4.47442C22.3188 3.78911 22.2093 3.20759 21.9903 2.72986C21.7742 2.25214 21.4515 1.88958 21.0221 1.64218C20.5927 1.39479 20.0595 1.27109 19.4226 1.27109H17.9041V7.70334Z" fill="black"/>
</svg>
