<svg width="32" height="32" viewBox="0 0 32 32" fill="none" xmlns="http://www.w3.org/2000/svg">
<path d="M8 10.6666H13.3333" stroke="#404040" stroke-width="1.5" stroke-linecap="round" stroke-linejoin="round"/>
<path d="M27.7778 12H24.3077C21.9286 12 20 13.7909 20 16C20 18.2091 21.9286 20 24.3077 20H27.7778C27.8889 20 27.9444 20 27.9913 19.9971C28.7104 19.9534 29.2831 19.4215 29.3303 18.7539C29.3333 18.7103 29.3333 18.6587 29.3333 18.5556V13.4444C29.3333 13.3413 29.3333 13.2897 29.3303 13.2461C29.2831 12.5785 28.7104 12.0466 27.9913 12.0029C27.9444 12 27.8889 12 27.7778 12Z" stroke="#404040" stroke-width="1.5"/>
<path d="M27.9534 12C27.8497 9.50364 27.5155 7.97303 26.4379 6.89547C24.8758 5.33337 22.3617 5.33337 17.3333 5.33337L13.3333 5.33337C8.30502 5.33337 5.79086 5.33337 4.22876 6.89547C2.66666 8.45757 2.66666 10.9717 2.66666 16C2.66666 21.0284 2.66666 23.5425 4.22876 25.1046C5.79086 26.6667 8.30502 26.6667 13.3333 26.6667H17.3333C22.3617 26.6667 24.8758 26.6667 26.4379 25.1046C27.5155 24.027 27.8497 22.4964 27.9534 20" stroke="#404040" stroke-width="1.5"/>
<path d="M23.9883 16H24.0003" stroke="#404040" stroke-width="2" stroke-linecap="round" stroke-linejoin="round"/>
</svg>
