<svg width="32" height="32" viewBox="0 0 32 32" fill="none" xmlns="http://www.w3.org/2000/svg">
<path d="M11.5785 31.9999C6.81597 31.9725 2.87646 22.2505 2.87646 17.2993C2.87646 9.21156 8.94365 7.44094 11.2819 7.44094C12.3357 7.44094 13.4608 7.85475 14.4533 8.22094C15.1473 8.47638 15.865 8.74006 16.2642 8.74006C16.5032 8.74006 17.0662 8.51575 17.5633 8.31894C18.6235 7.89688 19.9428 7.37231 21.479 7.37231C21.4818 7.37231 21.4855 7.37231 21.4882 7.37231C22.6353 7.37231 26.1134 7.62406 28.2045 10.7643L28.6943 11.5004L27.9893 12.0323C26.9823 12.7922 25.1448 14.1783 25.1448 16.924C25.1448 20.1759 27.2258 21.4266 28.2255 22.0281C28.6668 22.2936 29.1237 22.5673 29.1237 23.1661C29.1237 23.557 26.0035 31.9514 21.4726 31.9514C20.3639 31.9514 19.5802 31.6182 18.889 31.3243C18.1895 31.0268 17.5862 30.7704 16.5892 30.7704C16.0838 30.7704 15.4447 31.0094 14.7682 31.263C13.8436 31.6081 12.7971 31.9999 11.6097 31.9999H11.5785Z" fill="black"/>
<path d="M21.9591 0C22.0771 4.25475 19.0343 7.2065 15.995 7.02138C15.4942 3.62594 19.0339 0 21.9591 0Z" fill="black"/>
</svg>
