<svg width="34" height="34" viewBox="0 0 34 34" fill="none" xmlns="http://www.w3.org/2000/svg">
<g clip-path="url(#clip0_6_1450)">
<path d="M26.192 19.1073L26.2629 24.1719C23.8545 24.3608 21.6204 24.0685 19.5606 23.295C17.5003 22.5219 15.7028 21.368 14.1681 19.8333C12.6333 18.2986 11.4823 16.5039 10.7149 14.4493C9.94756 12.3956 9.65242 10.1587 9.82951 7.73852L14.8941 7.80936L15.5847 12.75L13.2118 15.1229C13.5187 15.7132 13.867 16.2858 14.2566 16.8406C14.6462 17.3955 15.0889 17.9208 15.5847 18.4167C16.0806 18.9125 16.6059 19.3552 17.1608 19.7448C17.7156 20.1344 18.2882 20.4826 18.8785 20.7896L21.2514 18.4167L26.192 19.1073Z" fill="#007AFF"/>
</g>
<defs>
<clipPath id="clip0_6_1450">
<rect width="24" height="24" fill="white" transform="translate(16.9999 34) scale(1.00174) rotate(-135)"/>
</clipPath>
</defs>
</svg>
