<svg width="24" height="24" viewBox="0 0 24 24" fill="none" xmlns="http://www.w3.org/2000/svg">
<path d="M16.192 12.0001C16.1847 11.7548 16.0897 11.5446 15.8925 11.3553L10.208 6.02174C10.0399 5.86755 9.84264 5.78345 9.60152 5.78345C9.11198 5.78345 8.73204 6.1479 8.73204 6.61748C8.73204 6.84175 8.82703 7.05201 8.99508 7.21321L14.1097 12.0001L8.99508 16.787C8.82703 16.9482 8.73204 17.1515 8.73204 17.3828C8.73204 17.8523 9.11198 18.2168 9.60152 18.2168C9.83533 18.2168 10.0399 18.1327 10.208 17.9785L15.8925 12.6379C16.0971 12.4557 16.192 12.2454 16.192 12.0001Z" fill="#007AFF"/>
</svg>
