<svg width="28" height="28" viewBox="0 0 28 28" fill="none" xmlns="http://www.w3.org/2000/svg">
<g clip-path="url(#clip0_25_397)">
<g clip-path="url(#clip1_25_397)">
<path d="M10.0566 7.44975L12.4193 9.90522L16.8423 9.44115L12.296 6.98725C12.2508 6.96436 12.2005 6.95344 12.1499 6.95553L10.265 6.95208C10.2069 6.95105 10.1499 6.96748 10.1012 6.99924C10.0525 7.03101 10.0145 7.07664 9.99207 7.13024C9.96962 7.18384 9.96377 7.24294 9.97527 7.2999C9.98678 7.35686 10.0151 7.40906 10.0566 7.44975Z" fill="white"/>
<path d="M25.4596 12.9634L22.7403 10.4993C22.5118 10.2918 22.2413 10.1358 21.9472 10.042C21.6531 9.9482 21.3422 9.91877 21.0357 9.9557L7.71503 11.3576L5.51854 9.95794C5.392 9.87903 5.24387 9.84186 5.09507 9.85168C4.94626 9.86151 4.8043 9.91782 4.68923 10.0127C4.57416 10.1075 4.4918 10.2361 4.45377 10.3803C4.41573 10.5245 4.42396 10.677 4.47727 10.8163L5.66658 13.8238C5.68588 13.8738 5.71769 13.918 5.75896 13.9522C5.80023 13.9864 5.84959 14.0094 5.9023 14.019C6.66802 14.139 9.7149 14.2479 13.3453 14.3255L10.6208 20.3198C10.5971 20.3717 10.588 20.429 10.5945 20.4856C10.601 20.5423 10.6229 20.5961 10.6577 20.6412C10.6925 20.6864 10.739 20.7211 10.7922 20.7418C10.8453 20.7625 10.9031 20.7682 10.9592 20.7585L12.7841 20.4446C12.8843 20.4269 12.975 20.3746 13.0404 20.2967L17.9925 14.4182C20.5969 14.4623 23.0926 14.4897 24.8517 14.506C25.0326 14.5105 25.2105 14.4594 25.3614 14.3595C25.5122 14.2595 25.6287 14.1156 25.6951 13.9473C25.7614 13.7789 25.7744 13.5942 25.7323 13.4183C25.6902 13.2423 25.595 13.0835 25.4596 12.9634Z" fill="white"/>
</g>
</g>
<defs>
<clipPath id="clip0_25_397">
<rect width="20" height="20" fill="white" transform="translate(10.2487) scale(1.02487) rotate(30)"/>
</clipPath>
<clipPath id="clip1_25_397">
<rect width="20" height="20" fill="white" transform="translate(10.2487) scale(1.02487) rotate(30)"/>
</clipPath>
</defs>
</svg>
