<svg width="28" height="16" viewBox="0 0 28 16" fill="none" xmlns="http://www.w3.org/2000/svg">
<g clip-path="url(#clip0_60_1309)">
<path d="M16.3368 14.5315C16.3368 14.195 16.6105 13.9216 16.9684 13.9216C17.3263 13.9216 17.5999 14.195 17.5999 14.5315C17.5999 14.868 17.3263 15.1624 16.9684 15.1624C16.6105 15.1624 16.3368 14.889 16.3368 14.5315ZM16.4631 14.5315C16.4631 14.8049 16.6947 15.0362 16.9894 15.0362C17.2631 15.0362 17.4947 14.8259 17.4947 14.5315C17.4947 14.2581 17.2631 14.0478 16.9894 14.0478C16.6736 14.0478 16.4631 14.2791 16.4631 14.5315Z" fill="#E31837"/>
<path d="M17.2842 14.8891H17.1579L16.9473 14.5736H16.821V14.8891H16.7368V14.1951H17.0526C17.1158 14.1951 17.1789 14.1951 17.221 14.2371C17.2842 14.2582 17.3052 14.3212 17.3052 14.3843C17.3052 14.5105 17.2 14.5736 17.0737 14.5736L17.2842 14.8891ZM16.9473 14.4895C17.0526 14.4895 17.1789 14.5105 17.1789 14.3843C17.1789 14.3002 17.0947 14.2792 17.0105 14.2792H16.821V14.4895H16.9473Z" fill="#E31837"/>
<path d="M13.9579 15.1625C18.3789 11.3771 24.5894 7.6969 28 6.37203C27.4737 6.03555 26.6526 5.55187 25.7263 5.02612C21.3263 6.47718 16.1894 9.69473 11.6 13.3329C12.3789 13.9217 13.2 14.5316 13.9579 15.1625Z" fill="#E31837"/>
<path d="M11.9368 4.87882C11.2842 4.56338 10.5684 4.26896 10.0211 4.0166C8.3579 4.83676 6.18948 6.07752 3.45264 8.03329C4.04211 8.34873 4.67369 8.72727 5.34737 9.1058C7.45264 7.5496 9.57895 6.07752 11.9368 4.87882Z" fill="#012169"/>
<path d="M15.8737 3.07045C15.0737 2.62882 12.2947 1.59836 10.3789 1.15674C9.8105 1.36704 9.0105 1.68248 8.46313 1.91381C9.15787 2.10308 11.7473 2.79706 13.9579 3.91164C14.5263 3.63825 15.3263 3.30177 15.8737 3.07045Z" fill="#E31837"/>
<path d="M6.46316 2.79688C4 3.93248 1.41053 5.48868 0 6.39296C0.505263 6.62429 1.01053 6.81356 1.70526 7.15003C4.82105 5.04706 7.26316 3.76424 8.23158 3.34365C7.53684 3.09129 6.88421 2.92305 6.46316 2.79688Z" fill="#012169"/>
<path d="M17.7264 2.41842C18.2948 2.22915 18.9474 2.06092 19.5158 1.89268C17.8737 1.1987 15.8106 0.462655 13.9579 0C13.6632 0.084119 12.779 0.315446 12.1685 0.504714C12.8 0.693982 14.8843 1.17767 17.7264 2.41842ZM7.34741 10.3256C8.0211 10.7252 8.73689 11.272 9.43162 11.7346C14.0421 8.15955 18.5895 5.40465 23.579 3.84845C22.8843 3.49094 22.2737 3.17549 21.4948 2.79696C18.5053 3.55403 13.3895 5.59392 7.34741 10.3256Z" fill="#E31837"/>
</g>
<defs>
<clipPath id="clip0_60_1309">
<rect width="28" height="15.1625" fill="white"/>
</clipPath>
</defs>
</svg>
