<svg width="13" height="14" viewBox="0 0 13 14" fill="none" xmlns="http://www.w3.org/2000/svg">
<path d="M6.46609 3.12033C6.21095 3.12792 5.99225 3.22672 5.79543 3.43191L0.247855 9.34449C0.0874781 9.51929 1.37751e-08 9.72448 1.07845e-08 9.97527C4.71254e-09 10.4844 0.379072 10.8796 0.867491 10.8796C1.10077 10.8796 1.31946 10.7808 1.48713 10.606L6.46609 5.28624L11.4451 10.606C11.6127 10.7808 11.8241 10.8796 12.0647 10.8796C12.5531 10.8796 12.9322 10.4844 12.9322 9.97527C12.9322 9.73208 12.8447 9.51929 12.6843 9.34449L7.12947 3.43191C6.93993 3.21912 6.72124 3.12033 6.46609 3.12033Z" fill="#007AFF"/>
</svg>
