<svg width="32" height="32" viewBox="0 0 32 32" fill="none" xmlns="http://www.w3.org/2000/svg">
<path d="M20.7702 4.50925L23.4369 5.90865C26.3058 7.41418 27.7402 8.16694 28.5368 9.51962C29.3333 10.8723 29.3333 12.5555 29.3333 15.922V16.0779C29.3333 19.4444 29.3333 21.1276 28.5368 22.4803C27.7402 23.833 26.3058 24.5857 23.4369 26.0913L20.7702 27.4907C18.4294 28.7191 17.259 29.3333 16 29.3333C14.7409 29.3333 13.5705 28.7191 11.2297 27.4907L8.56302 26.0913C5.69413 24.5857 4.25968 23.833 3.46316 22.4803C2.66663 21.1276 2.66663 19.4444 2.66663 16.0779V15.922C2.66663 12.5555 2.66663 10.8723 3.46316 9.51962C4.25968 8.16694 5.69413 7.41418 8.56302 5.90865L11.2297 4.50925C13.5705 3.28083 14.7409 2.66663 16 2.66663C17.259 2.66663 18.4294 3.28083 20.7702 4.50925Z" stroke="#404040" stroke-width="1.5" stroke-linecap="round"/>
<path d="M28 10L22.6667 12.6667M16 16L4 10M16 16V28.6667M16 16C16 16 19.6569 14.1716 22 13C22.2604 12.8698 22.6667 12.6667 22.6667 12.6667M22.6667 12.6667V17.3333M22.6667 12.6667L10 6" stroke="#404040" stroke-width="1.5" stroke-linecap="round"/>
</svg>
