<svg width="24" height="24" viewBox="0 0 24 24" fill="none" xmlns="http://www.w3.org/2000/svg">
<path d="M16.1921 12.0001C16.1847 11.7548 16.0898 11.5446 15.8925 11.3553L10.208 6.02174C10.0399 5.86755 9.84265 5.78345 9.60154 5.78345C9.112 5.78345 8.73206 6.1479 8.73206 6.61748C8.73206 6.84175 8.82704 7.05201 8.99509 7.21321L14.1097 12.0001L8.99509 16.787C8.82704 16.9482 8.73206 17.1515 8.73206 17.3828C8.73206 17.8523 9.112 18.2168 9.60154 18.2168C9.83535 18.2168 10.0399 18.1327 10.208 17.9785L15.8925 12.6379C16.0971 12.4557 16.1921 12.2454 16.1921 12.0001Z" fill="#007AFF"/>
</svg>
