<svg width="24" height="44" viewBox="0 0 24 44" fill="none" xmlns="http://www.w3.org/2000/svg">
<path d="M18.6357 35.6701L20.3521 30.5208C21.8516 26.0224 22.6013 23.7732 21.414 22.586C20.2268 21.3987 17.9776 22.1484 13.4792 23.6479L8.32987 25.3643C4.69923 26.5745 2.88392 27.1796 2.36806 28.067C1.87731 28.9111 1.87731 29.9537 2.36806 30.7978C2.88392 31.6852 4.69923 32.2903 8.32987 33.5005C8.77981 33.6505 9.28601 33.5434 9.62294 33.2096L15.1286 27.755C15.4383 27.4481 15.9382 27.4504 16.245 27.7602C16.5519 28.0699 16.5496 28.5698 16.2398 28.8766L10.8231 34.2432C10.4518 34.6111 10.3342 35.1742 10.4995 35.6701C11.7097 39.3007 12.3148 41.1161 13.2022 41.6319C14.0463 42.1227 15.0889 42.1227 15.933 41.6319C16.8204 41.1161 17.4255 39.3008 18.6357 35.6701Z" fill="#007AFF"/>
</svg>
