<svg width="32" height="32" viewBox="0 0 32 32" fill="none" xmlns="http://www.w3.org/2000/svg">
<path d="M14.4924 28.6803L15.1378 29.0623L14.4924 28.6803ZM14.8383 28.0959L14.1929 27.7139V27.7139L14.8383 28.0959ZM11.8283 28.0959L12.4737 27.7139L12.4737 27.7139L11.8283 28.0959ZM12.1742 28.6803L11.5288 29.0623L12.1742 28.6803ZM3.07264 22.841L3.76555 22.554H3.76555L3.07264 22.841ZM8.38574 26.1133L8.40972 25.3637H8.40971L8.38574 26.1133ZM5.95902 25.7274L5.67201 26.4203H5.67201L5.95902 25.7274ZM23.594 22.841L24.2869 23.128L24.2869 23.128L23.594 22.841ZM18.2809 26.1133L18.2569 25.3637L18.2809 26.1133ZM20.7076 25.7274L20.9947 26.4203L20.7076 25.7274ZM21.4533 8.78592L21.8452 8.14644V8.14644L21.4533 8.78592ZM23.2141 10.5467L23.8536 10.1548V10.1548L23.2141 10.5467ZM5.21334 8.78592L4.82146 8.14644V8.14644L5.21334 8.78592ZM3.45259 10.5467L2.8131 10.1548H2.8131L3.45259 10.5467ZM10.5552 26.4298L10.1733 27.0753V27.0753L10.5552 26.4298ZM15.1378 29.0623L15.4838 28.4779L14.1929 27.7139L13.847 28.2983L15.1378 29.0623ZM11.1829 28.4779L11.5288 29.0623L12.8196 28.2983L12.4737 27.7139L11.1829 28.4779ZM13.847 28.2983C13.622 28.6783 13.0446 28.6783 12.8196 28.2983L11.5288 29.0623C12.3346 30.4237 14.3321 30.4237 15.1378 29.0623L13.847 28.2983ZM11.7333 8.75H14.9333V7.25H11.7333V8.75ZM23.25 17.0667V18.1334H24.75V17.0667H23.25ZM3.41667 18.1334V17.0667H1.91667V18.1334H3.41667ZM1.91667 18.1334C1.91667 19.3656 1.91626 20.3274 1.96915 21.1026C2.02251 21.8846 2.13258 22.5314 2.37973 23.128L3.76555 22.554C3.60673 22.1706 3.51381 21.7061 3.46567 21.0005C3.41707 20.2882 3.41667 19.3862 3.41667 18.1334H1.91667ZM8.40971 25.3637C7.34743 25.3297 6.73539 25.2372 6.24603 25.0345L5.67201 26.4203C6.42404 26.7318 7.26385 26.8278 8.36176 26.8629L8.40971 25.3637ZM2.37973 23.128C2.99715 24.6186 4.18142 25.8029 5.67201 26.4203L6.24603 25.0345C5.12299 24.5693 4.23073 23.6771 3.76555 22.554L2.37973 23.128ZM23.25 18.1334C23.25 19.3862 23.2496 20.2882 23.201 21.0005C23.1528 21.7061 23.0599 22.1706 22.9011 22.554L24.2869 23.128C24.5341 22.5314 24.6442 21.8846 24.6975 21.1026C24.7504 20.3274 24.75 19.3656 24.75 18.1334H23.25ZM18.3049 26.8629C19.4028 26.8278 20.2426 26.7318 20.9947 26.4203L20.4206 25.0345C19.9313 25.2372 19.3192 25.3297 18.2569 25.3637L18.3049 26.8629ZM22.9011 22.554C22.4359 23.6771 21.5437 24.5693 20.4206 25.0345L20.9947 26.4203C22.4852 25.8029 23.6695 24.6186 24.2869 23.128L22.9011 22.554ZM14.9333 8.75C16.6937 8.75 17.9613 8.75079 18.9508 8.84487C19.9291 8.93789 20.5578 9.11679 21.0614 9.4254L21.8452 8.14644C21.0663 7.66913 20.1809 7.45507 19.0928 7.35161C18.0158 7.24921 16.6646 7.25 14.9333 7.25V8.75ZM24.75 17.0667C24.75 15.3354 24.7508 13.9842 24.6484 12.9073C24.5449 11.8191 24.3309 10.9337 23.8536 10.1548L22.5746 10.9386C22.8832 11.4422 23.0621 12.0709 23.1551 13.0492C23.2492 14.0387 23.25 15.3063 23.25 17.0667H24.75ZM21.0614 9.4254C21.6782 9.80332 22.1967 10.3218 22.5746 10.9386L23.8536 10.1548C23.3519 9.33626 22.6637 8.64805 21.8452 8.14644L21.0614 9.4254ZM11.7333 7.25C10.002 7.25 8.65088 7.24921 7.57391 7.35161C6.48578 7.45507 5.60036 7.66913 4.82146 8.14644L5.60521 9.4254C6.10882 9.11679 6.73756 8.93789 7.71589 8.84487C8.70538 8.75079 9.97298 8.75 11.7333 8.75V7.25ZM3.41667 17.0667C3.41667 15.3063 3.41746 14.0387 3.51154 13.0492C3.60456 12.0709 3.78346 11.4422 4.09207 10.9386L2.8131 10.1548C2.33579 10.9337 2.12173 11.8191 2.01827 12.9073C1.91587 13.9842 1.91667 15.3354 1.91667 17.0667H3.41667ZM4.82146 8.14644C4.00292 8.64805 3.31471 9.33626 2.8131 10.1548L4.09207 10.9386C4.46999 10.3218 4.9885 9.80333 5.60521 9.4254L4.82146 8.14644ZM12.4737 27.7139C12.2036 27.2575 11.9755 26.8707 11.7562 26.5688C11.5281 26.2547 11.2773 25.9855 10.937 25.7843L10.1733 27.0753C10.2746 27.1352 10.3832 27.2308 10.5426 27.4503C10.7109 27.682 10.8986 27.9976 11.1829 28.4779L12.4737 27.7139ZM8.36176 26.8629C8.9512 26.8818 9.34393 26.8951 9.64603 26.9319C9.93631 26.9673 10.0766 27.0181 10.1733 27.0753L10.937 25.7843C10.5921 25.5803 10.2237 25.4913 9.82765 25.4429C9.4434 25.3961 8.97219 25.3817 8.40972 25.3637L8.36176 26.8629ZM15.4838 28.4779C15.768 27.9976 15.9557 27.682 16.124 27.4503C16.2834 27.2308 16.392 27.1352 16.4933 27.0753L15.7296 25.7843C15.3894 25.9855 15.1385 26.2547 14.9104 26.5688C14.6911 26.8707 14.463 27.2575 14.1929 27.7139L15.4838 28.4779ZM18.2569 25.3637C17.6944 25.3817 17.2232 25.3961 16.839 25.4429C16.4429 25.4912 16.0745 25.5803 15.7296 25.7843L16.4933 27.0753C16.59 27.0181 16.7303 26.9673 17.0206 26.9319C17.3227 26.8951 17.7154 26.8818 18.3049 26.8629L18.2569 25.3637Z" fill="#404040"/>
<path d="M28.9527 16.5801L29.6456 16.8671V16.8671L28.9527 16.5801ZM26.2467 19.2861L26.5337 19.979L26.2467 19.2861ZM26.9457 3.40343L26.5539 4.04291L26.9457 3.40343ZM28.5965 5.05414L29.2359 4.66227V4.66227L28.5965 5.05414ZM11.7208 3.40343L11.3289 2.76395V2.76395L11.7208 3.40343ZM10.0701 5.05414L9.43058 4.66227H9.43058L10.0701 5.05414ZM17.8333 3.41663H20.8333V1.91663H17.8333V3.41663ZM28.5833 11.1667V12.1667H30.0833V11.1667H28.5833ZM28.5833 12.1667C28.5833 13.3418 28.5828 14.1856 28.5374 14.8514C28.4924 15.5105 28.4059 15.9403 28.2597 16.2931L29.6456 16.8671C29.88 16.3011 29.9838 15.689 30.0339 14.9535C30.0837 14.2248 30.0833 13.3213 30.0833 12.1667H28.5833ZM28.2597 16.2931C27.8284 17.3345 27.001 18.1618 25.9597 18.5932L26.5337 19.979C27.9426 19.3954 29.062 18.276 29.6456 16.8671L28.2597 16.2931ZM20.8333 3.41663C22.4845 3.41663 23.6703 3.41742 24.5952 3.50536C25.5089 3.59224 26.0903 3.75886 26.5539 4.04291L27.3376 2.76395C26.5988 2.3112 25.7607 2.10941 24.7372 2.01209C23.7248 1.91583 22.4555 1.91663 20.8333 1.91663V3.41663ZM30.0833 11.1667C30.0833 9.54446 30.084 8.27515 29.9878 7.26275C29.8905 6.2392 29.6887 5.40109 29.2359 4.66227L27.957 5.44602C28.241 5.90954 28.4076 6.49098 28.4945 7.40473C28.5825 8.32965 28.5833 9.51542 28.5833 11.1667H30.0833ZM26.5539 4.04291C27.1257 4.39335 27.6065 4.87415 27.957 5.44602L29.2359 4.66227C28.7618 3.88857 28.1113 3.23807 27.3376 2.76395L26.5539 4.04291ZM17.8333 1.91663C16.2111 1.91663 14.9418 1.91583 13.9294 2.01209C12.9058 2.10941 12.0677 2.3112 11.3289 2.76395L12.1126 4.04291C12.5762 3.75886 13.1576 3.59224 14.0713 3.50536C14.9963 3.41742 16.182 3.41663 17.8333 3.41663V1.91663ZM11.3289 2.76395C10.5552 3.23807 9.9047 3.88857 9.43058 4.66227L10.7095 5.44602C11.06 4.87415 11.5408 4.39335 12.1126 4.04291L11.3289 2.76395ZM10.1266 8.03892C10.1937 6.74783 10.3626 6.01224 10.7095 5.44602L9.43058 4.66227C8.88144 5.55839 8.69908 6.60642 8.62862 7.961L10.1266 8.03892ZM24.0249 20.3965C25.0408 20.3628 25.8269 20.2718 26.5337 19.979L25.9597 18.5932C25.5135 18.778 24.9531 18.8649 23.9751 18.8974L24.0249 20.3965Z" fill="#404040"/>
<path d="M8.67875 17.3334H8.69075M13.3331 17.3334H13.3451M17.9877 17.3334H17.9997" stroke="#404040" stroke-width="2" stroke-linecap="round" stroke-linejoin="round"/>
</svg>
