<svg width="35" height="27" viewBox="0 0 35 27" fill="none" xmlns="http://www.w3.org/2000/svg">
<g clip-path="url(#clip0_61_4547)">
<path d="M0 0H35V26.25H0V0Z" fill="#00008B"/>
<path d="M2.05078 0L8.72266 4.94922L15.3672 0H17.5V1.69531L10.9375 6.58984L17.5 11.457V13.125H15.3125L8.75 8.23047L2.21484 13.125H0V11.4844L6.53516 6.61719L0 1.75V0H2.05078Z" fill="white"/>
<path d="M11.5938 7.68359L17.5 12.0312V13.125L10.0898 7.68359H11.5938ZM6.5625 8.23047L6.72656 9.1875L1.47656 13.125H0L6.5625 8.23047ZM17.5 0V0.0820312L10.6914 5.22266L10.7461 4.01953L16.1328 0H17.5ZM0 0L6.53516 4.8125H4.89453L0 1.14844V0Z" fill="#FF0000"/>
<path d="M6.58984 0V13.125H10.9648V0H6.58984ZM0 4.375V8.75H17.5V4.375H0Z" fill="white"/>
<path d="M0 5.27734V7.90234H17.5V5.27734H0ZM7.46484 0V13.125H10.0898V0H7.46484Z" fill="#FF0000"/>
<path d="M28.8202 21.6945L27.6991 21.8367L27.8194 22.9578L27.0101 22.1703L26.2062 22.9633L26.3155 21.8422L25.1944 21.7109L26.1405 21.0984L25.5444 20.1414L26.6163 20.4969L26.9937 19.4304L27.3819 20.4914L28.4483 20.125L27.8632 21.0875L28.8147 21.6945H28.8202ZM28.6179 15.2851L28.7655 14.5742L28.2296 14.082L28.9515 14L29.2522 13.3383L29.553 14L30.2749 14.082L29.739 14.5742L29.8866 15.2851L29.2522 14.9242L28.6179 15.2851ZM22.9249 12.0039L21.8147 12.1242L21.9132 13.2344L21.1257 12.4414L20.3163 13.2125L20.4476 12.1023L19.3429 11.9547L20.289 11.364L19.7147 10.407L20.7702 10.7789L21.164 9.73435L21.5304 10.7898L22.5913 10.4453L21.9952 11.3914L22.9304 12.0039H22.9249ZM34.0702 10.2101L32.9272 10.3578L33.053 11.5008L32.2272 10.6969L31.4069 11.5062L31.5218 10.3578L30.3788 10.2265L31.3468 9.59763L30.7397 8.61873L31.8335 8.98513L32.2163 7.90232L32.6101 8.98513L33.6983 8.60779L33.0968 9.59216L34.0702 10.2101ZM28.8147 5.64373L27.6827 5.76951L27.7866 6.90701L26.9827 6.09763L26.1569 6.88513L26.2882 5.7531L25.1562 5.59998L26.1241 4.99841L25.539 4.01951L26.6163 4.39685L27.0155 3.33044L27.3874 4.40779L28.4702 4.05232L27.8632 5.01482L28.8147 5.64373ZM12.7968 21.0929L10.2921 21.3883L10.5437 23.8984L8.7499 22.1265L6.94521 23.8875L7.21318 21.3773L4.7085 21.0601L6.83584 19.7039L5.52334 17.5492L7.90772 18.3695L8.77178 15.9961L9.61943 18.375L12.0093 17.5711L10.6804 19.7148L12.8022 21.0875L12.7968 21.0929Z" fill="white"/>
</g>
<defs>
<clipPath id="clip0_61_4547">
<rect width="35" height="26.25" rx="5" fill="white"/>
</clipPath>
</defs>
</svg>
