<svg width="32" height="32" viewBox="0 0 32 32" fill="none" xmlns="http://www.w3.org/2000/svg">
<path fill-rule="evenodd" clip-rule="evenodd" d="M14.0648 28.7036L14.3982 28.1403C14.9326 27.2376 15.1998 26.7862 15.6253 26.5344C16.0509 26.2827 16.6061 26.2649 17.7164 26.2294C18.7574 26.1961 19.4571 26.1053 20.0554 25.8575C21.315 25.3357 22.3157 24.335 22.8375 23.0754C23.2288 22.1307 23.2288 20.9331 23.2288 18.5379V17.5098C23.2288 14.1443 23.2288 12.4616 22.4712 11.2254C22.0474 10.5337 21.4658 9.95218 20.7741 9.52831C19.538 8.77079 17.8553 8.77079 14.4898 8.77079H11.4055C8.04001 8.77079 6.35728 8.77079 5.12113 9.52831C4.42944 9.95218 3.84789 10.5337 3.42402 11.2254C2.6665 12.4616 2.6665 14.1443 2.6665 17.5098V18.5379C2.6665 20.9331 2.6665 22.1307 3.05781 23.0754C3.57954 24.335 4.58028 25.3357 5.83986 25.8575C6.43812 26.1053 7.13781 26.1961 8.17887 26.2294C9.28915 26.2649 9.84429 26.2827 10.2699 26.5344C10.6955 26.7862 10.9626 27.2376 11.497 28.1403L11.8304 28.7036C12.3271 29.5429 13.5681 29.5429 14.0648 28.7036ZM17.4456 19.0519C18.1554 19.0519 18.7308 18.4765 18.7308 17.7668C18.7308 17.057 18.1554 16.4816 17.4456 16.4816C16.7359 16.4816 16.1605 17.057 16.1605 17.7668C16.1605 18.4765 16.7359 19.0519 17.4456 19.0519ZM14.2328 17.7668C14.2328 18.4765 13.6574 19.0519 12.9476 19.0519C12.2379 19.0519 11.6625 18.4765 11.6625 17.7668C11.6625 17.057 12.2379 16.4816 12.9476 16.4816C13.6574 16.4816 14.2328 17.057 14.2328 17.7668ZM8.44964 19.0519C9.1594 19.0519 9.73478 18.4765 9.73478 17.7668C9.73478 17.057 9.1594 16.4816 8.44964 16.4816C7.73987 16.4816 7.1645 17.057 7.1645 17.7668C7.1645 18.4765 7.73987 19.0519 8.44964 19.0519Z" fill="#007AFF"/>
<path d="M20.226 2.66663C21.7616 2.66662 22.9828 2.66661 23.9622 2.75973C24.9663 2.85521 25.8154 3.05534 26.5717 3.51883C27.3499 3.99569 28.0041 4.64994 28.481 5.42809C28.9445 6.18444 29.1446 7.03348 29.2401 8.03768C29.3332 9.01701 29.3332 10.2382 29.3332 11.7738V12.8226C29.3332 13.9155 29.3332 14.7848 29.2851 15.4897C29.2359 16.2108 29.1331 16.8301 28.893 17.4099C28.306 18.8269 27.1802 19.9528 25.7632 20.5397C25.7277 20.5544 25.6921 20.5686 25.6563 20.5823C25.4852 20.6477 25.3387 20.7037 25.2101 20.7454C25.2288 20.1203 25.2288 19.4084 25.2288 18.6049V17.4152C25.2288 15.813 25.2288 14.4709 25.1251 13.3798C25.0165 12.2375 24.7802 11.1656 24.1765 10.1804C23.5877 9.21963 22.7799 8.41182 21.8191 7.82303C20.834 7.21934 19.762 6.98307 18.6198 6.87446C17.5287 6.77072 16.1866 6.77075 14.5844 6.77079H11.3109C10.2227 6.77077 9.25457 6.77074 8.40352 6.80323C8.44317 6.66583 8.49749 6.50834 8.56125 6.32347C8.6697 6.00906 8.80676 5.7117 8.98056 5.42809C9.45741 4.64994 10.1117 3.99569 10.8898 3.51883C11.6461 3.05534 12.4952 2.85521 13.4994 2.75973C14.4787 2.66661 15.6999 2.66662 17.2355 2.66663H20.226Z" fill="#007AFF"/>
</svg>
