<svg width="32" height="32" viewBox="0 0 32 32" fill="none" xmlns="http://www.w3.org/2000/svg">
<g clip-path="url(#clip0_0_115)">
<path d="M10.5226 10.8755L6.42278 9.69189L8.32878 8.59611L13.8802 8.43697L10.5226 10.8755ZM30.5263 6.38641L30.5263 6.38645L30.5341 6.38806C30.6602 6.41387 30.7754 6.47783 30.8639 6.57125C30.9524 6.66469 31.0101 6.78307 31.0291 6.91038C31.0481 7.03769 31.0275 7.16776 30.9702 7.28298C30.9128 7.3982 30.8214 7.49299 30.7083 7.55451L30.7082 7.55443L30.6978 7.56033C28.3076 8.91093 24.9138 10.821 21.3606 12.7931L21.0488 12.9661L20.9862 13.3172L18.8841 25.1047L17.0633 26.6196L16.1155 16.8784L16.0053 15.746L15.0079 16.2937C12.5255 17.657 10.2366 18.8946 8.42886 19.845C6.75696 20.724 5.53523 21.3365 4.94512 21.5865L1.11029 18.5445C1.05274 18.497 1.01128 18.4329 0.991677 18.3608C0.971808 18.2878 0.975374 18.2104 1.00187 18.1395C1.02837 18.0687 1.07646 18.0079 1.13935 17.9658C1.20151 17.9243 1.27503 17.903 1.34973 17.905L5.4073 18.0826L5.66906 18.094L5.88101 17.94L22.7966 5.64666L22.7966 5.64673L22.8057 5.63995C23.1051 5.41533 23.4494 5.25776 23.8152 5.17794C24.1809 5.09812 24.5596 5.09791 24.9254 5.17733L24.9263 5.17752L30.5263 6.38641Z" stroke="#404040" stroke-width="1.5"/>
</g>
<defs>
<clipPath id="clip0_0_115">
<rect width="32" height="32" fill="white"/>
</clipPath>
</defs>
</svg>
