<svg width="14" height="14" viewBox="0 0 14 14" fill="none" xmlns="http://www.w3.org/2000/svg">
<path d="M10.2537 2.58513L9.087 1.9729C8.06289 1.43546 7.55083 1.16675 7.00001 1.16675C6.44918 1.16675 5.93712 1.43546 4.91301 1.97289L4.72534 2.07138L9.93044 5.04572L12.2735 3.87419C11.8966 3.44729 11.2884 3.12811 10.2537 2.58513Z" fill="#007AFF"/>
<path d="M12.6866 4.64595L10.3542 5.81214V7.58342C10.3542 7.82504 10.1583 8.02092 9.91667 8.02092C9.67505 8.02092 9.47917 7.82504 9.47917 7.58342V6.24964L7.43751 7.27047V12.7774C7.85629 12.6731 8.33278 12.4231 9.08699 12.0273L10.2537 11.415C11.5088 10.7564 12.1364 10.427 12.4849 9.83523C12.8333 9.24344 12.8333 8.50703 12.8333 7.0342V6.96596C12.8333 5.86191 12.8333 5.17167 12.6866 4.64595Z" fill="#007AFF"/>
<path d="M6.56251 12.7774V7.27047L1.31346 4.64595C1.16667 5.17167 1.16667 5.86191 1.16667 6.96596V7.0342C1.16667 8.50703 1.16667 9.24344 1.51515 9.83523C1.86363 10.427 2.4912 10.7564 3.74633 11.415L4.91301 12.0273C5.66723 12.4231 6.14372 12.6731 6.56251 12.7774Z" fill="#007AFF"/>
<path d="M1.72649 3.87419L7.00001 6.51094L8.98984 5.51602L3.806 2.55383L3.74634 2.58513C2.71166 3.12811 2.10345 3.44729 1.72649 3.87419Z" fill="#007AFF"/>
</svg>
