<svg width="162" height="136" viewBox="0 0 162 136" fill="none" xmlns="http://www.w3.org/2000/svg">
<path d="M135.805 55.0476C135.805 55.9064 135.464 56.73 134.858 57.3373C134.251 57.9446 133.429 58.2857 132.571 58.2857H100.237C99.3793 58.2857 98.5569 57.9446 97.9505 57.3373C97.3441 56.73 97.0034 55.9064 97.0034 55.0476C97.0034 54.1888 97.3441 53.3652 97.9505 52.7579C98.5569 52.1507 99.3793 51.8095 100.237 51.8095H132.571C133.429 51.8095 134.251 52.1507 134.858 52.7579C135.464 53.3652 135.805 54.1888 135.805 55.0476ZM132.571 77.7143H100.237C99.3793 77.7143 98.5569 78.0554 97.9505 78.6627C97.3441 79.27 97.0034 80.0936 97.0034 80.9524C97.0034 81.8112 97.3441 82.6348 97.9505 83.2421C98.5569 83.8493 99.3793 84.1905 100.237 84.1905H132.571C133.429 84.1905 134.251 83.8493 134.858 83.2421C135.464 82.6348 135.805 81.8112 135.805 80.9524C135.805 80.0936 135.464 79.27 134.858 78.6627C134.251 78.0554 133.429 77.7143 132.571 77.7143ZM80.0278 99.5714C80.2422 100.409 80.1157 101.297 79.6761 102.041C79.2364 102.785 78.5197 103.323 77.6836 103.538C76.8475 103.753 75.9604 103.626 75.2176 103.186C74.4748 102.746 73.937 102.028 73.7226 101.19C72.4621 96.3327 69.6273 92.0313 65.6626 88.9608C61.698 85.8904 56.8279 84.2245 51.816 84.2245C46.8041 84.2245 41.934 85.8904 37.9694 88.9608C34.0047 92.0313 31.1699 96.3327 29.9094 101.19C29.717 101.882 29.3058 102.493 28.7373 102.931C28.1689 103.369 27.4739 103.61 26.7568 103.619H25.9484C25.1316 103.374 24.437 102.829 24.0026 102.094C23.5683 101.359 23.426 100.488 23.6042 99.6524C24.6974 95.505 26.6816 91.6467 29.4182 88.3468C32.1548 85.047 35.5778 82.3853 39.4481 80.5476C35.3635 77.8788 32.249 73.9603 30.5683 69.3754C28.8876 64.7906 28.7307 59.7847 30.1208 55.1033C31.511 50.4219 34.3738 46.3153 38.2831 43.3952C42.1924 40.475 46.939 38.8975 51.816 38.8975C56.693 38.8975 61.4396 40.475 65.3489 43.3952C69.2582 46.3153 72.121 50.4219 73.5112 55.1033C74.9013 59.7847 74.7444 64.7906 73.0637 69.3754C71.383 73.9603 68.2685 77.8788 64.1839 80.5476C68.0455 82.3768 71.463 85.026 74.1991 88.3112C76.9352 91.5964 78.9241 95.4388 80.0278 99.5714ZM51.816 77.7143C55.0136 77.7143 58.1394 76.7647 60.798 74.9857C63.4567 73.2067 65.5289 70.6781 66.7526 67.7196C67.9762 64.7612 68.2964 61.5058 67.6726 58.3652C67.0488 55.2246 65.509 52.3397 63.248 50.0754C60.9869 47.8111 58.1062 46.2691 54.9701 45.6444C51.8339 45.0197 48.5832 45.3403 45.6291 46.5658C42.6749 47.7912 40.1499 49.8664 38.3734 52.5289C36.597 55.1914 35.6488 58.3216 35.6488 61.5238C35.67 65.8112 37.3802 69.917 40.4075 72.9487C43.4349 75.9804 47.5347 77.693 51.816 77.7143ZM161.672 9.71429V126.286C161.672 128.862 160.65 131.333 158.831 133.155C157.012 134.977 154.545 136 151.972 136H9.70034C7.12765 136 4.66033 134.977 2.84117 133.155C1.022 131.333 0 128.862 0 126.286V9.71429C0 7.1379 1.022 4.66703 2.84117 2.84525C4.66033 1.02347 7.12765 0 9.70034 0H151.972C154.545 0 157.012 1.02347 158.831 2.84525C160.65 4.66703 161.672 7.1379 161.672 9.71429ZM155.205 9.71429C155.205 8.85549 154.865 8.03187 154.258 7.42461C153.652 6.81735 152.83 6.47619 151.972 6.47619H9.70034C8.84278 6.47619 8.02034 6.81735 7.41395 7.42461C6.80756 8.03187 6.4669 8.85549 6.4669 9.71429V126.286C6.4669 127.145 6.80756 127.968 7.41395 128.575C8.02034 129.183 8.84278 129.524 9.70034 129.524H151.972C152.83 129.524 153.652 129.183 154.258 128.575C154.865 127.968 155.205 127.145 155.205 126.286V9.71429Z" fill="black"/>
</svg>
