<svg width="32" height="32" viewBox="0 0 32 32" fill="none" xmlns="http://www.w3.org/2000/svg">
<path d="M23.4368 5.90865L20.7701 4.50925C18.4293 3.28083 17.2589 2.66663 15.9998 2.66663C14.7408 2.66663 13.5704 3.28083 11.2296 4.50925L10.8006 4.73436L22.698 11.5329L28.0536 8.85505C27.192 7.87929 25.8018 7.14975 23.4368 5.90865Z" fill="#007AFF"/>
<path d="M28.9977 10.6191L23.6665 13.2847V17.3333C23.6665 17.8856 23.2188 18.3333 22.6665 18.3333C22.1142 18.3333 21.6665 17.8856 21.6665 17.3333V14.2847L16.9998 16.618V29.2053C17.9571 28.9669 19.0462 28.3954 20.7701 27.4907L23.4368 26.0913C26.3057 24.5857 27.7401 23.833 28.5366 22.4803C29.3332 21.1276 29.3332 19.4444 29.3332 16.0779V15.922C29.3332 13.3984 29.3332 11.8207 28.9977 10.6191Z" fill="#007AFF"/>
<path d="M14.9998 29.2053V16.618L3.00202 10.6191C2.6665 11.8207 2.6665 13.3984 2.6665 15.922V16.0779C2.6665 19.4444 2.6665 21.1276 3.46303 22.4803C4.25956 23.833 5.694 24.5857 8.56287 26.0913L11.2296 27.4907C12.9535 28.3953 14.0426 28.9669 14.9998 29.2053Z" fill="#007AFF"/>
<path d="M3.94609 8.85505L15.9998 14.8819L20.548 12.6078L8.69926 5.83709L8.5629 5.90865C6.1979 7.14974 4.80771 7.87929 3.94609 8.85505Z" fill="#007AFF"/>
</svg>
