<svg width="15" height="15" viewBox="0 0 15 15" fill="none" xmlns="http://www.w3.org/2000/svg">
<path d="M14.6252 6.58339L11.6072 9.21734L12.5113 13.1388C12.5591 13.3438 12.5454 13.5584 12.472 13.7557C12.3986 13.9529 12.2686 14.1242 12.0984 14.248C11.9281 14.3719 11.7252 14.4427 11.5148 14.4518C11.3045 14.4609 11.0962 14.4078 10.9159 14.2992L7.49565 12.2247L4.08276 14.2992C3.90246 14.4078 3.69413 14.4609 3.48382 14.4518C3.2735 14.4427 3.07054 14.3719 2.9003 14.248C2.73005 14.1242 2.60009 13.9529 2.52665 13.7557C2.45322 13.5584 2.43957 13.3438 2.48741 13.1388L3.39015 9.22135L0.371417 6.58339C0.211753 6.44569 0.0962999 6.26391 0.0395347 6.06085C-0.0172305 5.85779 -0.0127803 5.64249 0.052327 5.44195C0.117434 5.24141 0.240301 5.06456 0.405518 4.93357C0.570736 4.80258 0.770949 4.72329 0.981052 4.70563L4.96008 4.361L6.51327 0.656345C6.59438 0.461955 6.7312 0.295909 6.90648 0.179115C7.08177 0.0623207 7.28769 0 7.49833 0C7.70896 0 7.91489 0.0623207 8.09017 0.179115C8.26546 0.295909 8.40227 0.461955 8.48338 0.656345L10.0413 4.361L14.0189 4.70563C14.2291 4.72329 14.4293 4.80258 14.5945 4.93357C14.7597 5.06456 14.8826 5.24141 14.9477 5.44195C15.0128 5.64249 15.0172 5.85779 14.9605 6.06085C14.9037 6.26391 14.7882 6.44569 14.6286 6.58339H14.6252Z" fill="#F39D00"/>
</svg>
