<svg width="23" height="9" viewBox="0 0 23 9" fill="none" xmlns="http://www.w3.org/2000/svg">
<path d="M0 8.99998V0H3.208C3.90819 0 4.48827 0.127441 4.94823 0.382323C5.40819 0.637205 5.75243 0.985837 5.98094 1.42822C6.20946 1.86767 6.32371 2.36279 6.32371 2.91357C6.32371 3.46728 6.20799 3.96532 5.97655 4.4077C5.74803 4.84716 5.40233 5.19579 4.93944 5.4536C4.47948 5.70848 3.90087 5.83592 3.20361 5.83592H0.997556V4.68456H3.08056C3.52294 4.68456 3.88183 4.60839 4.15722 4.45604C4.43261 4.30077 4.63475 4.08983 4.76366 3.82323C4.89257 3.55663 4.95702 3.25341 4.95702 2.91357C4.95702 2.57372 4.89257 2.27197 4.76366 2.0083C4.63475 1.74462 4.43114 1.53808 4.15282 1.38867C3.87743 1.23925 3.51415 1.16455 3.06298 1.16455H1.35791V8.99998H0Z" fill="black"/>
<path d="M7.91563 8.99998V0H9.27354V4.29784H9.3834L13.1583 0H14.8678L11.2379 4.05175L14.8809 8.99998H13.2462L10.337 4.97899L9.27354 6.20067V8.99998H7.91563Z" fill="black"/>
<path d="M16.1334 8.99998V0H19.3414C20.0386 0 20.6173 0.120117 21.0772 0.360351C21.5401 0.600584 21.8858 0.933103 22.1143 1.35791C22.3428 1.77978 22.4571 2.26757 22.4571 2.82128C22.4571 3.37206 22.3414 3.85692 22.1099 4.27587C21.8814 4.69188 21.5357 5.01561 21.0728 5.24706C20.6129 5.4785 20.0343 5.59422 19.337 5.59422H16.9068V4.42528H19.2139C19.6534 4.42528 20.0108 4.36229 20.2862 4.23632C20.5645 4.11034 20.7681 3.92724 20.897 3.687C21.0259 3.44677 21.0904 3.1582 21.0904 2.82128C21.0904 2.48144 21.0245 2.18701 20.8926 1.93798C20.7637 1.68896 20.5601 1.49853 20.2818 1.3667C20.0064 1.23193 19.6446 1.16455 19.1964 1.16455H17.4913V8.99998H16.1334ZM20.5762 4.93944L22.7999 8.99998H21.253L19.0733 4.93944H20.5762Z" fill="black"/>
</svg>
