<svg width="8" height="19" viewBox="0 0 8 19" fill="none" xmlns="http://www.w3.org/2000/svg">
<path d="M7.68932 9.49999C7.68179 9.24715 7.58389 9.03043 7.38055 8.83538L1.5213 3.33784C1.34808 3.17891 1.14474 3.09222 0.896209 3.09222C0.391621 3.09222 -1.64203e-08 3.46787 -3.75772e-08 3.95189C-4.7682e-08 4.18306 0.0979051 4.39978 0.271122 4.56594L5.54294 9.49999L0.271122 14.434C0.0979047 14.6002 -5.12187e-07 14.8097 -5.22608e-07 15.0481C-5.43765e-07 15.5321 0.39162 15.9078 0.896209 15.9078C1.13721 15.9078 1.34808 15.8211 1.5213 15.6621L7.38055 10.1574C7.59142 9.96956 7.68932 9.75283 7.68932 9.49999Z" fill="#007AFF"/>
</svg>
