<svg width="32" height="32" viewBox="0 0 32 32" fill="none" xmlns="http://www.w3.org/2000/svg">
<path fill-rule="evenodd" clip-rule="evenodd" d="M28.1344 10.6714C28.0588 10.6666 27.9766 10.6666 27.8912 10.6667L27.87 10.6667H24.5253C21.7684 10.6667 19.4095 12.8368 19.4095 15.6667C19.4095 18.4966 21.7684 20.6667 24.5253 20.6667H27.87L27.8912 20.6667C27.9766 20.6667 28.0588 20.6667 28.1344 20.662C29.2542 20.5913 30.2445 19.7149 30.3278 18.491C30.3333 18.4107 30.3332 18.3242 30.3332 18.244L30.3331 18.2222V13.1111L30.3332 13.0894C30.3332 13.0092 30.3333 12.9227 30.3278 12.8424C30.2445 11.6184 29.2542 10.7421 28.1344 10.6714ZM24.2287 17C24.9385 17 25.5139 16.403 25.5139 15.6667C25.5139 14.9303 24.9385 14.3333 24.2287 14.3333C23.519 14.3333 22.9436 14.9303 22.9436 15.6667C22.9436 16.403 23.519 17 24.2287 17Z" fill="#007AFF"/>
<path fill-rule="evenodd" clip-rule="evenodd" d="M27.8904 22.6667C28.0892 22.6615 28.2396 22.8457 28.1857 23.0371C27.918 23.987 27.4932 24.7966 26.8115 25.4783C25.8137 26.4762 24.5484 26.919 22.9852 27.1292C21.4662 27.3334 19.5254 27.3334 17.0751 27.3333H14.258C11.8076 27.3334 9.86676 27.3334 8.34781 27.1292C6.78458 26.919 5.51931 26.4762 4.5215 25.4783C3.52368 24.4805 3.08086 23.2153 2.87068 21.652C2.66647 20.1331 2.66648 18.1922 2.6665 15.7419V15.5914C2.66648 13.1411 2.66647 11.2003 2.87068 9.6813C3.08085 8.11807 3.52368 6.85281 4.52149 5.85499C5.51931 4.85717 6.78458 4.41435 8.34781 4.20418C9.86676 3.99996 11.8076 3.99998 14.2579 4L17.0751 4C19.5254 3.99998 21.4662 3.99996 22.9852 4.20418C24.5484 4.41435 25.8137 4.85717 26.8115 5.85499C27.4932 6.5367 27.918 7.34632 28.1857 8.29624C28.2396 8.48767 28.0892 8.67183 27.8904 8.66667L24.5252 8.66668C20.743 8.66668 17.4093 11.6545 17.4093 15.6667C17.4093 19.6788 20.743 22.6667 24.5252 22.6667L27.8904 22.6667ZM7.6665 9.33333C7.11422 9.33333 6.6665 9.78105 6.6665 10.3333C6.6665 10.8856 7.11422 11.3333 7.6665 11.3333H12.9998C13.5521 11.3333 13.9998 10.8856 13.9998 10.3333C13.9998 9.78105 13.5521 9.33333 12.9998 9.33333H7.6665Z" fill="#007AFF"/>
</svg>
