<svg width="21" height="23" viewBox="0 0 21 23" fill="none" xmlns="http://www.w3.org/2000/svg">
<path d="M20.16 5.06127L11.2754 0.199969C11.038 0.0688024 10.7712 0 10.5 0C10.2288 0 9.962 0.0688024 9.72462 0.199969L0.84 5.06329C0.586272 5.20211 0.37447 5.40652 0.226711 5.65515C0.0789521 5.90378 0.00065651 6.18752 0 6.47675V16.1327C0.00065651 16.4219 0.0789521 16.7057 0.226711 16.9543C0.37447 17.2029 0.586272 17.4073 0.84 17.5462L9.72462 22.4095C9.962 22.5407 10.2288 22.6095 10.5 22.6095C10.7712 22.6095 11.038 22.5407 11.2754 22.4095L20.16 17.5462C20.4137 17.4073 20.6255 17.2029 20.7733 16.9543C20.9211 16.7057 20.9993 16.4219 21 16.1327V6.47776C20.9999 6.18802 20.9218 5.90365 20.7741 5.65443C20.6263 5.40522 20.4142 5.20034 20.16 5.06127ZM10.5 1.61343L18.6113 6.05574L15.6056 7.70141L7.49337 3.2591L10.5 1.61343ZM10.5 10.498L2.38875 6.05574L5.81135 4.18189L13.9226 8.6242L10.5 10.498ZM1.61538 7.4692L9.69231 11.8893V20.5508L1.61538 16.1337V7.4692ZM19.3846 16.1297L11.3077 20.5508V11.8933L14.5385 10.1255V13.7288C14.5385 13.943 14.6236 14.1485 14.775 14.2999C14.9265 14.4514 15.1319 14.5365 15.3462 14.5365C15.5604 14.5365 15.7658 14.4514 15.9173 14.2999C16.0688 14.1485 16.1538 13.943 16.1538 13.7288V9.24108L19.3846 7.4692V16.1287V16.1297Z" fill="#EDC700"/>
</svg>
