<svg width="32" height="32" viewBox="0 0 32 32" fill="none" xmlns="http://www.w3.org/2000/svg">
<path d="M2.6665 16.2719C2.6665 13.2206 2.6665 11.695 3.35877 10.4303C4.05104 9.16557 5.31576 8.38064 7.84522 6.81079L10.5119 5.15579C13.1857 3.49635 14.5226 2.66663 15.9998 2.66663C17.4771 2.66663 18.814 3.49635 21.4878 5.15578L24.1545 6.81079C26.6839 8.38064 27.9486 9.16557 28.6409 10.4303C29.3332 11.695 29.3332 13.2206 29.3332 16.2719V18.2999C29.3332 23.5011 29.3332 26.1017 27.7711 27.7175C26.209 29.3333 23.6948 29.3333 18.6665 29.3333H13.3332C8.30486 29.3333 5.7907 29.3333 4.2286 27.7175C2.6665 26.1017 2.6665 23.5011 2.6665 18.2999V16.2719Z" stroke="#404040" stroke-width="1.5"/>
<path d="M16 20L16 24" stroke="#404040" stroke-width="1.5" stroke-linecap="round"/>
</svg>
