<svg width="23" height="23" viewBox="0 0 23 23" fill="none" xmlns="http://www.w3.org/2000/svg">
<path d="M22.9951 3.54597C22.9961 2.8449 22.7889 2.15932 22.3999 1.57609C22.0108 0.992865 21.4574 0.538243 20.8098 0.269824C20.1621 0.00140589 19.4494 -0.0687278 18.7618 0.0683093C18.0743 0.205346 17.4429 0.543387 16.9476 1.0396L13.717 4.27029L6.25533 1.78691C6.05667 1.72447 5.84478 1.71716 5.64229 1.76576C5.4398 1.81436 5.25431 1.91704 5.10562 2.06284L2.36931 4.77616C2.23966 4.90731 2.14346 5.06774 2.08884 5.24388C2.03421 5.42003 2.02276 5.60673 2.05545 5.78824C2.08815 5.96974 2.16402 6.14071 2.27668 6.28673C2.38933 6.43274 2.53546 6.54952 2.70273 6.62719L8.65823 9.32901L5.66898 12.3183L3.70298 11.3295C3.49071 11.2146 3.24767 11.1695 3.0083 11.2004C2.76893 11.2314 2.54538 11.3369 2.36931 11.502L0.334327 13.5829C0.120193 13.7983 0 14.0897 0 14.3935C0 14.6972 0.120193 14.9886 0.334327 15.204L7.79594 22.6656C8.01136 22.8798 8.30275 23 8.60649 23C8.91023 23 9.20162 22.8798 9.41703 22.6656L11.498 20.6307C11.6706 20.4599 11.7846 20.2389 11.8239 19.9993C11.8631 19.7597 11.8255 19.5139 11.7165 19.297L10.7277 17.331L13.717 14.3417L16.4188 20.2972C16.4964 20.4645 16.6132 20.6106 16.7592 20.7233C16.9052 20.8359 17.0762 20.9118 17.2577 20.9445C17.4392 20.9772 17.6259 20.9658 17.8021 20.9111C17.9782 20.8565 18.1386 20.7603 18.2698 20.6307L20.9831 17.9173C21.1289 17.7687 21.2316 17.5832 21.2802 17.3807C21.3288 17.1782 21.3215 16.9663 21.259 16.7676L18.7757 9.30602L21.9604 6.05234C22.2906 5.72417 22.5522 5.33353 22.7298 4.90321C22.9075 4.4729 22.9976 4.01151 22.9951 3.54597ZM20.3278 4.43124L16.6027 8.15631C16.4569 8.30499 16.3542 8.49048 16.3056 8.69297C16.257 8.89546 16.2644 9.10735 16.3268 9.30602L18.8102 16.7561L17.7754 17.7909L15.0736 11.8469C14.9969 11.6781 14.8805 11.5303 14.7344 11.4162C14.5883 11.3021 14.4167 11.225 14.2343 11.1915C14.0504 11.158 13.8612 11.1698 13.6829 11.2258C13.5046 11.2819 13.3426 11.3807 13.2111 11.5135L8.47427 16.2963C8.30421 16.4661 8.19168 16.6851 8.1525 16.9222C8.11331 17.1594 8.14945 17.4029 8.25583 17.6184L9.19859 19.5499L8.55475 20.1938L2.77171 14.3992L3.45004 13.8014L5.41604 14.7901C5.6316 14.8965 5.87508 14.9326 6.11225 14.8935C6.34941 14.8543 6.56833 14.7417 6.73821 14.5717L11.498 9.78889C11.6301 9.65782 11.7284 9.49664 11.7845 9.31919C11.8406 9.14174 11.8527 8.95334 11.82 8.77015C11.7872 8.58697 11.7104 8.41448 11.5962 8.26751C11.4821 8.12053 11.334 8.00347 11.1646 7.92636L5.17461 5.22454L6.20935 4.18981L13.6595 6.67318C13.8581 6.73562 14.07 6.74293 14.2725 6.69433C14.475 6.64573 14.6605 6.54305 14.8092 6.39725L18.5342 2.67219C18.6488 2.55504 18.7856 2.46195 18.9367 2.3984C19.0877 2.33485 19.2499 2.30211 19.4138 2.30211C19.5776 2.30211 19.7398 2.33485 19.8909 2.3984C20.0419 2.46195 20.1787 2.55504 20.2933 2.67219C20.4132 2.7833 20.5081 2.91871 20.5715 3.06939C20.6349 3.22007 20.6655 3.38254 20.6612 3.54597C20.6674 3.7083 20.6412 3.87025 20.5839 4.02228C20.5266 4.17431 20.4396 4.31335 20.3278 4.43124Z" fill="#007AFF"/>
</svg>
