<svg width="6" height="10" viewBox="0 0 6 10" fill="none" xmlns="http://www.w3.org/2000/svg">
<path d="M-4.37114e-07 5C0.00587612 5.19729 0.0822721 5.3664 0.24094 5.5186L4.81293 9.80834C4.94809 9.93236 5.10676 10 5.30069 10C5.69442 10 6 9.70688 6 9.3292C6 9.14882 5.9236 8.97971 5.78844 8.85006L1.67483 5L5.78844 1.14994C5.9236 1.02029 6 0.856821 6 0.670801C6 0.293123 5.69442 2.67149e-08 5.30068 6.1136e-08C5.11263 7.75759e-08 4.94809 0.0676442 4.81293 0.191657L0.24094 4.48704C0.0763955 4.6336 -4.54362e-07 4.80271 -4.37114e-07 5Z" fill="#007AFF"/>
</svg>
